<svg width="24" height="24" viewBox="0 0 24 24" fill="none" xmlns="http://www.w3.org/2000/svg">
<path fill-rule="evenodd" clip-rule="evenodd" d="M5.45399 7.85899C5.82461 4.52345 8.64398 2 12 2C15.3561 2 18.1755 4.52346 18.5461 7.85899L18.8039 10.1793C18.9168 11.1625 19.2368 12.1106 19.7429 12.9611L20.373 14.0114C20.6146 14.4138 20.8334 14.7785 20.9791 15.0879C21.1273 15.4024 21.2856 15.8286 21.2094 16.3117C21.1341 16.7893 20.8883 17.2233 20.5176 17.5337C20.1425 17.8476 19.6956 17.931 19.3497 17.9658C19.0093 18.0001 18.5841 18 18.1147 18H5.88536C5.41598 18 4.99072 18.0001 4.65035 17.9658C4.30446 17.931 3.85759 17.8476 3.48252 17.5337C3.11179 17.2233 2.86601 16.7893 2.79066 16.3117C2.71443 15.8286 2.8728 15.4024 3.02092 15.0879C3.16667 14.7785 3.38549 14.4138 3.62701 14.0114L4.25714 12.9611C4.76327 12.1106 5.08331 11.1625 5.19614 10.1793L5.45399 7.85899ZM12 4C9.66307 4 7.69983 5.75718 7.44176 8.07985L7.1831 10.4073C7.03803 11.6714 6.62656 12.8904 5.97581 13.9839L5.36615 15.0001C5.09264 15.456 4.92782 15.733 4.8303 15.9401C4.82496 15.9514 4.82007 15.9621 4.81559 15.972C4.82645 15.9733 4.8381 15.9746 4.85055 15.9759C5.0783 15.9988 5.40067 16 5.93226 16H18.0678C18.5994 16 18.9218 15.9988 19.1495 15.9759C19.162 15.9746 19.1736 15.9733 19.1845 15.972C19.18 15.9621 19.1751 15.9514 19.1698 15.9401C19.0722 15.733 18.9074 15.456 18.6339 15.0001L18.0243 13.9839C17.3735 12.8904 16.962 11.6714 16.817 10.4073L16.5583 8.07985C16.3002 5.75719 14.337 4 12 4Z" fill="#33363F"/>
<path fill-rule="evenodd" clip-rule="evenodd" d="M13.9134 21.6194C13.3068 21.8707 12.6566 22 12 22C11.3434 22 10.6932 21.8707 10.0866 21.6194C9.47996 21.3681 8.92876 20.9998 8.46447 20.5355C8.00017 20.0712 7.63188 19.52 7.3806 18.9134C7.12933 18.3068 7 17.6566 7 17C7 16.4477 7.44771 16 8 16C8.55228 16 9 16.4477 9 17C9 17.394 9.0776 17.7841 9.22836 18.1481C9.37913 18.512 9.6001 18.8427 9.87868 19.1213C10.1573 19.3999 10.488 19.6209 10.8519 19.7716C11.2159 19.9224 11.606 20 12 20C12.394 20 12.7841 19.9224 13.1481 19.7716C13.512 19.6209 13.8427 19.3999 14.1213 19.1213C14.3999 18.8427 14.6209 18.512 14.7716 18.1481C14.9224 17.7841 15 17.394 15 17C15 16.4477 15.4477 16 16 16C16.5523 16 17 16.4477 17 17C17 17.6566 16.8707 18.3068 16.6194 18.9134C16.3681 19.52 15.9998 20.0712 15.5355 20.5355C15.0712 20.9998 14.52 21.3681 13.9134 21.6194Z" fill="#33363F"/>
</svg>
