<svg width="24" height="24" viewBox="0 0 24 24" fill="none" xmlns="http://www.w3.org/2000/svg">
<path fill-rule="evenodd" clip-rule="evenodd" d="M15 7C17.7614 7 20 9.23858 20 12C20 14.7614 17.7614 17 15 17H8C5.79086 17 4 15.2091 4 13C4 10.7909 5.79086 9 8 9H10.9748L11.2729 8.66691C12.1899 7.6424 13.5193 7 15 7ZM22 12C22 8.13401 18.866 5 15 5C13.0926 5 11.3626 5.76392 10.101 7H8C4.68629 7 2 9.68629 2 13C2 16.3137 4.68629 19 8 19H15C18.866 19 22 15.866 22 12Z" fill="#33363F"/>
<path fill-rule="evenodd" clip-rule="evenodd" d="M11.9489 5.69992C13.1367 5.12471 14.4628 4.89697 15.7744 5.04298C17.086 5.18898 18.3296 5.70278 19.3618 6.52511C20.394 7.34743 21.1727 8.44479 21.6081 9.6906C22.0435 10.9364 22.1178 12.2799 21.8225 13.5662C21.5273 14.8524 20.8744 16.029 19.9393 16.9602C19.0042 17.8914 17.8248 18.5393 16.5373 18.8291L16.0981 16.8779C17.0177 16.6709 17.8601 16.2081 18.5281 15.543C19.196 14.8779 19.6623 14.0374 19.8732 13.1187C20.0842 12.1999 20.031 11.2403 19.7201 10.3504C19.4091 9.46057 18.8529 8.67674 18.1156 8.08936C17.3783 7.50199 16.49 7.13499 15.5532 7.0307C14.6163 6.92641 13.6691 7.08908 12.8207 7.49994C11.9723 7.91081 11.2573 8.55313 10.7583 9.35282C10.2592 10.1525 9.99634 11.077 10 12.0196L8.00005 12.0275C7.99487 10.7078 8.36285 9.41352 9.06155 8.29395C9.76025 7.17438 10.7612 6.27513 11.9489 5.69992Z" fill="#33363F"/>
</svg>
