<svg width="25" height="24" viewBox="0 0 25 24" fill="none" xmlns="http://www.w3.org/2000/svg">
<path fill-rule="evenodd" clip-rule="evenodd" d="M12.5 6C9.18629 6 6.5 8.68629 6.5 12C6.5 15.3137 9.18629 18 12.5 18C15.8137 18 18.5 15.3137 18.5 12C18.5 8.68629 15.8137 6 12.5 6ZM4.5 12C4.5 7.58172 8.08172 4 12.5 4C16.9183 4 20.5 7.58172 20.5 12C20.5 16.4183 16.9183 20 12.5 20C8.08172 20 4.5 16.4183 4.5 12Z" fill="#33363F"/>
<path d="M14.5 12C14.5 13.1046 13.6046 14 12.5 14C11.3954 14 10.5 13.1046 10.5 12C10.5 10.8954 11.3954 10 12.5 10C13.6046 10 14.5 10.8954 14.5 12Z" fill="#33363F"/>
<path fill-rule="evenodd" clip-rule="evenodd" d="M12.5 11C11.9477 11 11.5 11.4477 11.5 12C11.5 12.5523 11.9477 13 12.5 13C13.0523 13 13.5 12.5523 13.5 12C13.5 11.4477 13.0523 11 12.5 11ZM9.5 12C9.5 10.3431 10.8431 9 12.5 9C14.1569 9 15.5 10.3431 15.5 12C15.5 13.6569 14.1569 15 12.5 15C10.8431 15 9.5 13.6569 9.5 12Z" fill="#33363F"/>
<path fill-rule="evenodd" clip-rule="evenodd" d="M12.5 2C13.0523 2 13.5 2.44772 13.5 3V5C13.5 5.55228 13.0523 6 12.5 6C11.9477 6 11.5 5.55228 11.5 5V3C11.5 2.44772 11.9477 2 12.5 2Z" fill="#33363F"/>
<path fill-rule="evenodd" clip-rule="evenodd" d="M22.5 12C22.5 12.5523 22.0523 13 21.5 13L19.5 13C18.9477 13 18.5 12.5523 18.5 12C18.5 11.4477 18.9477 11 19.5 11L21.5 11C22.0523 11 22.5 11.4477 22.5 12Z" fill="#33363F"/>
<path fill-rule="evenodd" clip-rule="evenodd" d="M12.5 18C13.0523 18 13.5 18.4477 13.5 19L13.5 21C13.5 21.5523 13.0523 22 12.5 22C11.9477 22 11.5 21.5523 11.5 21L11.5 19C11.5 18.4477 11.9477 18 12.5 18Z" fill="#33363F"/>
<path fill-rule="evenodd" clip-rule="evenodd" d="M6.5 12C6.5 12.5523 6.05228 13 5.5 13H3.5C2.94772 13 2.5 12.5523 2.5 12C2.5 11.4477 2.94772 11 3.5 11H5.5C6.05228 11 6.5 11.4477 6.5 12Z" fill="#33363F"/>
</svg>
