<svg width="24" height="24" viewBox="0 0 24 24" fill="none" xmlns="http://www.w3.org/2000/svg">
<path fill-rule="evenodd" clip-rule="evenodd" d="M12 4C7.58172 4 4 7.58172 4 12C4 16.4183 7.58172 20 12 20C16.4183 20 20 16.4183 20 12C20 7.58172 16.4183 4 12 4ZM2 12C2 6.47715 6.47715 2 12 2C17.5228 2 22 6.47715 22 12C22 17.5228 17.5228 22 12 22C6.47715 22 2 17.5228 2 12Z" fill="#33363F"/>
<path d="M12.5 18C12.5 18.2761 12.2761 18.5 12 18.5C11.7239 18.5 11.5 18.2761 11.5 18C11.5 17.7239 11.7239 17.5 12 17.5C12.2761 17.5 12.5 17.7239 12.5 18Z" fill="#33363F"/>
<path fill-rule="evenodd" clip-rule="evenodd" d="M11 18C11 17.4477 11.4477 17 12 17C12.5523 17 13 17.4477 13 18C13 18.5523 12.5523 19 12 19C11.4477 19 11 18.5523 11 18Z" fill="#33363F"/>
<path fill-rule="evenodd" clip-rule="evenodd" d="M8 10C8 7.79086 9.79086 6 12 6H12.0943C14.2514 6 16 7.74864 16 9.90569V10.4189C16 11.7935 15.1204 13.014 13.8162 13.4487C13.3288 13.6112 13 14.0673 13 14.5811V16H11V14.5811C11 13.2065 11.8796 11.986 13.1838 11.5513C13.6712 11.3888 14 10.9327 14 10.4189V9.90569C14 8.85321 13.1468 8 12.0943 8H12C10.8954 8 10 8.89543 10 10H8Z" fill="#33363F"/>
</svg>
