<svg width="24" height="24" viewBox="0 0 24 24" fill="none" xmlns="http://www.w3.org/2000/svg">
<path fill-rule="evenodd" clip-rule="evenodd" d="M4.94561 2.00001C4.96372 2.00001 4.98186 2.00001 5.00001 2.00001H8.00001C8.01817 2.00001 8.03631 2.00001 8.05442 2.00001C8.47849 1.99992 8.89062 1.99984 9.23053 2.04554C9.61374 2.09706 10.051 2.22259 10.4142 2.5858C10.7774 2.94902 10.903 3.38629 10.9545 3.76949C11.0002 4.10941 11.0001 4.52154 11 4.9456C11 4.96372 11 4.98186 11 5.00001V8.00001C11 8.01817 11 8.03631 11 8.05442C11.0001 8.47849 11.0002 8.89062 10.9545 9.23053C10.903 9.61374 10.7774 10.051 10.4142 10.4142C10.051 10.7774 9.61374 10.903 9.23053 10.9545C8.89062 11.0002 8.47849 11.0001 8.05442 11C8.03631 11 8.01817 11 8.00001 11H5.00001C4.98186 11 4.96372 11 4.9456 11C4.52153 11.0001 4.10941 11.0002 3.76949 10.9545C3.38629 10.903 2.94902 10.7774 2.5858 10.4142C2.22259 10.051 2.09706 9.61374 2.04554 9.23053C1.99984 8.89062 1.99992 8.47849 2.00001 8.05442C2.00001 8.03631 2.00001 8.01817 2.00001 8.00001V5.00001C2.00001 4.98186 2.00001 4.96372 2.00001 4.94561C1.99992 4.52154 1.99984 4.10941 2.04554 3.76949C2.09706 3.38629 2.22259 2.94902 2.5858 2.5858C2.94902 2.22259 3.38629 2.09706 3.76949 2.04554C4.10941 1.99984 4.52154 1.99992 4.94561 2.00001ZM4.02871 4.02871C4.02838 4.03108 4.02804 4.03351 4.02771 4.03599C4.00214 4.22618 4.00001 4.50034 4.00001 5.00001V8.00001C4.00001 8.49969 4.00214 8.77385 4.02771 8.96404C4.02804 8.96652 4.02838 8.96894 4.02871 8.97132C4.03108 8.97165 4.03351 8.97199 4.03599 8.97232C4.22618 8.99789 4.50034 9.00001 5.00001 9.00001H8.00001C8.49969 9.00001 8.77385 8.99789 8.96404 8.97232C8.96652 8.97199 8.96894 8.97165 8.97132 8.97132C8.97165 8.96894 8.97199 8.96652 8.97232 8.96404C8.99789 8.77385 9.00001 8.49969 9.00001 8.00001V5.00001C9.00001 4.50034 8.99789 4.22618 8.97232 4.03599C8.97199 4.03351 8.97165 4.03108 8.97132 4.02871C8.96894 4.02838 8.96652 4.02804 8.96404 4.02771C8.77385 4.00214 8.49969 4.00001 8.00001 4.00001H5.00001C4.50034 4.00001 4.22618 4.00214 4.03599 4.02771C4.03351 4.02804 4.03108 4.02837 4.02871 4.02871Z" fill="white"/>
<path fill-rule="evenodd" clip-rule="evenodd" d="M4.94561 13C4.96372 13 4.98186 13 5.00001 13H8.00001C8.01817 13 8.03631 13 8.05442 13C8.47849 12.9999 8.89062 12.9998 9.23053 13.0455C9.61374 13.0971 10.051 13.2226 10.4142 13.5858C10.7774 13.949 10.903 14.3863 10.9545 14.7695C11.0002 15.1094 11.0001 15.5215 11 15.9456C11 15.9637 11 15.9819 11 16V19C11 19.0182 11 19.0363 11 19.0544C11.0001 19.4785 11.0002 19.8906 10.9545 20.2305C10.903 20.6137 10.7774 21.051 10.4142 21.4142C10.051 21.7774 9.61374 21.903 9.23053 21.9545C8.89062 22.0002 8.47849 22.0001 8.05442 22C8.03631 22 8.01817 22 8.00001 22H5.00001C4.98186 22 4.96372 22 4.9456 22C4.52153 22.0001 4.10941 22.0002 3.76949 21.9545C3.38629 21.903 2.94902 21.7774 2.5858 21.4142C2.22259 21.051 2.09706 20.6137 2.04554 20.2305C1.99984 19.8906 1.99992 19.4785 2.00001 19.0544C2.00001 19.0363 2.00001 19.0182 2.00001 19V16C2.00001 15.9819 2.00001 15.9637 2.00001 15.9456C1.99992 15.5215 1.99984 15.1094 2.04554 14.7695C2.09706 14.3863 2.22259 13.949 2.5858 13.5858C2.94902 13.2226 3.38629 13.0971 3.76949 13.0455C4.10941 12.9998 4.52154 12.9999 4.94561 13ZM4.02871 15.0287C4.02838 15.0311 4.02804 15.0335 4.02771 15.036C4.00214 15.2262 4.00001 15.5003 4.00001 16V19C4.00001 19.4997 4.00214 19.7738 4.02771 19.964C4.02804 19.9665 4.02838 19.9689 4.02871 19.9713C4.03108 19.9717 4.03351 19.972 4.03599 19.9723C4.22618 19.9979 4.50034 20 5.00001 20H8.00001C8.49969 20 8.77385 19.9979 8.96404 19.9723C8.96652 19.972 8.96894 19.9717 8.97132 19.9713C8.97165 19.9689 8.97199 19.9665 8.97232 19.964C8.99789 19.7738 9.00001 19.4997 9.00001 19V16C9.00001 15.5003 8.99789 15.2262 8.97232 15.036C8.97199 15.0335 8.97165 15.0311 8.97132 15.0287C8.96894 15.0284 8.96652 15.028 8.96404 15.0277C8.77385 15.0021 8.49969 15 8.00001 15H5.00001C4.50034 15 4.22618 15.0021 4.03599 15.0277C4.03351 15.028 4.03108 15.0284 4.02871 15.0287Z" fill="white"/>
<path fill-rule="evenodd" clip-rule="evenodd" d="M15.9456 2.00001C15.9637 2.00001 15.9819 2.00001 16 2.00001H19C19.0182 2.00001 19.0363 2.00001 19.0544 2.00001C19.4785 1.99992 19.8906 1.99984 20.2305 2.04554C20.6137 2.09706 21.051 2.22259 21.4142 2.5858C21.7774 2.94902 21.903 3.38629 21.9545 3.76949C22.0002 4.10941 22.0001 4.52154 22 4.9456C22 4.96372 22 4.98186 22 5.00001V8.00001C22 8.01817 22 8.03631 22 8.05442C22.0001 8.47849 22.0002 8.89062 21.9545 9.23053C21.903 9.61374 21.7774 10.051 21.4142 10.4142C21.051 10.7774 20.6137 10.903 20.2305 10.9545C19.8906 11.0002 19.4785 11.0001 19.0544 11C19.0363 11 19.0182 11 19 11H16C15.9819 11 15.9637 11 15.9456 11C15.5215 11.0001 15.1094 11.0002 14.7695 10.9545C14.3863 10.903 13.949 10.7774 13.5858 10.4142C13.2226 10.051 13.0971 9.61374 13.0455 9.23053C12.9998 8.89062 12.9999 8.47849 13 8.05442C13 8.03631 13 8.01817 13 8.00001V5.00001C13 4.98186 13 4.96372 13 4.94561C12.9999 4.52154 12.9998 4.10941 13.0455 3.76949C13.0971 3.38629 13.2226 2.94902 13.5858 2.5858C13.949 2.22259 14.3863 2.09706 14.7695 2.04554C15.1094 1.99984 15.5215 1.99992 15.9456 2.00001ZM15.0287 4.02871C15.0284 4.03108 15.028 4.03351 15.0277 4.03599C15.0021 4.22618 15 4.50034 15 5.00001V8.00001C15 8.49969 15.0021 8.77385 15.0277 8.96404C15.028 8.96652 15.0284 8.96894 15.0287 8.97132C15.0311 8.97165 15.0335 8.97199 15.036 8.97232C15.2262 8.99789 15.5003 9.00001 16 9.00001H19C19.4997 9.00001 19.7738 8.99789 19.964 8.97232C19.9665 8.97199 19.9689 8.97165 19.9713 8.97132C19.9717 8.96894 19.972 8.96652 19.9723 8.96404C19.9979 8.77385 20 8.49969 20 8.00001V5.00001C20 4.50034 19.9979 4.22618 19.9723 4.03599C19.972 4.03351 19.9717 4.03108 19.9713 4.02871C19.9689 4.02838 19.9665 4.02804 19.964 4.02771C19.7738 4.00214 19.4997 4.00001 19 4.00001H16C15.5003 4.00001 15.2262 4.00214 15.036 4.02771C15.0335 4.02804 15.0311 4.02837 15.0287 4.02871Z" fill="white"/>
<path fill-rule="evenodd" clip-rule="evenodd" d="M15.9456 13C15.9637 13 15.9819 13 16 13H19C19.0182 13 19.0363 13 19.0544 13C19.4785 12.9999 19.8906 12.9998 20.2305 13.0455C20.6137 13.0971 21.051 13.2226 21.4142 13.5858C21.7774 13.949 21.903 14.3863 21.9545 14.7695C22.0002 15.1094 22.0001 15.5215 22 15.9456C22 15.9637 22 15.9819 22 16V19C22 19.0182 22 19.0363 22 19.0544C22.0001 19.4785 22.0002 19.8906 21.9545 20.2305C21.903 20.6137 21.7774 21.051 21.4142 21.4142C21.051 21.7774 20.6137 21.903 20.2305 21.9545C19.8906 22.0002 19.4785 22.0001 19.0544 22C19.0363 22 19.0182 22 19 22H16C15.9819 22 15.9637 22 15.9456 22C15.5215 22.0001 15.1094 22.0002 14.7695 21.9545C14.3863 21.903 13.949 21.7774 13.5858 21.4142C13.2226 21.051 13.0971 20.6137 13.0455 20.2305C12.9998 19.8906 12.9999 19.4785 13 19.0544C13 19.0363 13 19.0182 13 19V16C13 15.9819 13 15.9637 13 15.9456C12.9999 15.5215 12.9998 15.1094 13.0455 14.7695C13.0971 14.3863 13.2226 13.949 13.5858 13.5858C13.949 13.2226 14.3863 13.0971 14.7695 13.0455C15.1094 12.9998 15.5215 12.9999 15.9456 13ZM15.0287 15.0287C15.0284 15.0311 15.028 15.0335 15.0277 15.036C15.0021 15.2262 15 15.5003 15 16V19C15 19.4997 15.0021 19.7738 15.0277 19.964C15.028 19.9665 15.0284 19.9689 15.0287 19.9713C15.0311 19.9717 15.0335 19.972 15.036 19.9723C15.2262 19.9979 15.5003 20 16 20H19C19.4997 20 19.7738 19.9979 19.964 19.9723C19.9665 19.972 19.9689 19.9717 19.9713 19.9713C19.9717 19.9689 19.972 19.9665 19.9723 19.964C19.9979 19.7738 20 19.4997 20 19V16C20 15.5003 19.9979 15.2262 19.9723 15.036C19.972 15.0335 19.9717 15.0311 19.9713 15.0287C19.9689 15.0284 19.9665 15.028 19.964 15.0277C19.7738 15.0021 19.4997 15 19 15H16C15.5003 15 15.2262 15.0021 15.036 15.0277C15.0335 15.028 15.0311 15.0284 15.0287 15.0287Z" fill="white"/>
</svg>
