<svg width="32" height="32" viewBox="0 0 32 32" fill="none" xmlns="http://www.w3.org/2000/svg">
<path fill-rule="evenodd" clip-rule="evenodd" d="M4.66663 16.0001C4.66663 9.74085 9.74073 4.66675 16 4.66675C22.2592 4.66675 27.3333 9.74085 27.3333 16.0001V22.8094C27.3333 23.3556 27.3333 23.7962 27.311 24.1555C27.2881 24.5248 27.2398 24.8522 27.1231 25.165C26.7853 26.0708 26.0707 26.7854 25.1648 27.1232C24.8521 27.2399 24.5247 27.2882 24.1554 27.3111C23.7961 27.3334 23.3555 27.3334 22.8092 27.3334H16C9.74073 27.3334 4.66663 22.2593 4.66663 16.0001ZM16 6.00008C10.4771 6.00008 5.99996 10.4772 5.99996 16.0001C5.99996 21.5229 10.4771 26.0001 16 26.0001H22.7878C23.3605 26.0001 23.7597 25.9998 24.0728 25.9803C24.3807 25.9612 24.5609 25.9255 24.6989 25.874C25.2424 25.6713 25.6711 25.2425 25.8739 24.699C25.9253 24.561 25.9611 24.3808 25.9802 24.0729C25.9997 23.7598 26 23.3606 26 22.788V16.0001C26 10.4772 21.5228 6.00008 16 6.00008Z" fill="#1D1D1D"/>
<path fill-rule="evenodd" clip-rule="evenodd" d="M11.3334 14.6667C11.3334 14.2985 11.6319 14 12 14L20 14C20.3682 14 20.6667 14.2985 20.6667 14.6667C20.6667 15.0349 20.3682 15.3333 20 15.3333L12 15.3333C11.6319 15.3333 11.3334 15.0349 11.3334 14.6667Z" fill="#1D1D1D"/>
<path fill-rule="evenodd" clip-rule="evenodd" d="M15.3334 19.9999C15.3334 19.6317 15.6319 19.3333 16 19.3333H20C20.3682 19.3333 20.6667 19.6317 20.6667 19.9999C20.6667 20.3681 20.3682 20.6666 20 20.6666H16C15.6319 20.6666 15.3334 20.3681 15.3334 19.9999Z" fill="#1D1D1D"/>
</svg>
