<svg width="32" height="32" viewBox="0 0 32 32" fill="none" xmlns="http://www.w3.org/2000/svg">
<path fill-rule="evenodd" clip-rule="evenodd" d="M30.6668 16C30.6668 24.1002 24.1003 30.6667 16.0002 30.6667C7.89999 30.6667 1.3335 24.1002 1.3335 16C1.3335 7.89986 7.89999 1.33337 16.0002 1.33337C24.1003 1.33337 30.6668 7.89986 30.6668 16ZM16.0002 28C22.6276 28 28.0002 22.6275 28.0002 16C28.0002 9.37262 22.6276 4.00004 16.0002 4.00004C9.37274 4.00004 4.00016 9.37262 4.00016 16C4.00016 22.6275 9.37274 28 16.0002 28Z" fill="#33363F"/>
<path fill-rule="evenodd" clip-rule="evenodd" d="M9.50025 20.135C9.98233 19.5784 10.8244 19.5179 11.381 20C11.8491 20.4054 12.5223 20.742 13.3332 20.9761C14.1439 21.2101 15.0636 21.3333 15.9998 21.3333C16.936 21.3333 17.8557 21.2101 18.6665 20.9761C19.4773 20.742 20.1506 20.4054 20.6186 20C21.1753 19.5179 22.0173 19.5784 22.4994 20.135C22.9815 20.6917 22.921 21.5337 22.3644 22.0158C21.5187 22.7482 20.4608 23.2337 19.4061 23.5381C18.3303 23.8487 17.1592 24 15.9998 24C14.8405 24 13.6694 23.8487 12.5936 23.5381C11.5389 23.2337 10.481 22.7482 9.63529 22.0158C9.07864 21.5337 9.01818 20.6917 9.50025 20.135Z" fill="#33363F"/>
<path d="M13.3332 13.3333C13.3332 14.0697 12.7362 14.6667 11.9998 14.6667C11.2635 14.6667 10.6665 14.0697 10.6665 13.3333C10.6665 12.597 11.2635 12 11.9998 12C12.7362 12 13.3332 12.597 13.3332 13.3333Z" fill="#33363F"/>
<path fill-rule="evenodd" clip-rule="evenodd" d="M14 13.3334C14 14.4379 13.1046 15.3334 12 15.3334C10.8954 15.3334 10 14.4379 10 13.3334C10 12.2288 10.8954 11.3334 12 11.3334C13.1046 11.3334 14 12.2288 14 13.3334ZM12 14.6667C12.7364 14.6667 13.3333 14.0698 13.3333 13.3334C13.3333 12.597 12.7364 12 12 12C11.2636 12 10.6667 12.597 10.6667 13.3334C10.6667 14.0698 11.2636 14.6667 12 14.6667Z" fill="#33363F"/>
<path d="M21.3332 13.3333C21.3332 14.0697 20.7362 14.6667 19.9998 14.6667C19.2635 14.6667 18.6665 14.0697 18.6665 13.3333C18.6665 12.597 19.2635 12 19.9998 12C20.7362 12 21.3332 12.597 21.3332 13.3333Z" fill="#33363F"/>
<path fill-rule="evenodd" clip-rule="evenodd" d="M22 13.3334C22 14.4379 21.1046 15.3334 20 15.3334C18.8954 15.3334 18 14.4379 18 13.3334C18 12.2288 18.8954 11.3334 20 11.3334C21.1046 11.3334 22 12.2288 22 13.3334ZM20 14.6667C20.7364 14.6667 21.3333 14.0698 21.3333 13.3334C21.3333 12.597 20.7364 12 20 12C19.2636 12 18.6667 12.597 18.6667 13.3334C18.6667 14.0698 19.2636 14.6667 20 14.6667Z" fill="#33363F"/>
</svg>
