<svg width="32" height="32" viewBox="0 0 32 32" fill="none" xmlns="http://www.w3.org/2000/svg">
<path fill-rule="evenodd" clip-rule="evenodd" d="M10.6668 6.66663C11.4032 6.66663 12.0002 7.26358 12.0002 7.99996V24C12.0002 24.7363 11.4032 25.3333 10.6668 25.3333C9.93045 25.3333 9.3335 24.7363 9.3335 24V7.99996C9.3335 7.26358 9.93045 6.66663 10.6668 6.66663Z" fill="#33363F"/>
<path fill-rule="evenodd" clip-rule="evenodd" d="M11.6096 7.05715C12.1303 7.57785 12.1303 8.42207 11.6096 8.94277L7.60964 12.9428C7.08894 13.4635 6.24472 13.4635 5.72402 12.9428C5.20332 12.4221 5.20332 11.5778 5.72402 11.0571L9.72402 7.05715C10.2447 6.53645 11.0889 6.53645 11.6096 7.05715Z" fill="#33363F"/>
<path fill-rule="evenodd" clip-rule="evenodd" d="M17.7462 7.19204C18.6069 6.80149 19.5968 6.66663 20.667 6.66663C21.7372 6.66663 22.7271 6.80149 23.5878 7.19204C24.4855 7.5994 25.1584 8.24684 25.6297 9.1124C26.0815 9.94228 26.3299 10.9382 26.4736 12.0473C26.6183 13.1635 26.667 14.4805 26.667 16C26.667 17.5194 26.6183 18.8364 26.4736 19.9526C26.3299 21.0617 26.0815 22.0576 25.6297 22.8875C25.1584 23.7531 24.4855 24.4005 23.5878 24.8079C22.7271 25.1984 21.7372 25.3333 20.667 25.3333C19.5968 25.3333 18.6069 25.1984 17.7462 24.8079C16.8485 24.4005 16.1755 23.7531 15.7043 22.8875C15.2525 22.0576 15.0041 21.0617 14.8603 19.9526C14.7157 18.8364 14.667 17.5194 14.667 16C14.667 14.4805 14.7157 13.1635 14.8603 12.0473C15.0041 10.9382 15.2525 9.94228 15.7043 9.1124C16.1755 8.24684 16.8485 7.5994 17.7462 7.19204ZM17.5049 12.3901C17.3822 13.3364 17.3337 14.5194 17.3337 16C17.3337 17.4805 17.3822 18.6635 17.5049 19.6098C17.6285 20.5632 17.8176 21.1923 18.0463 21.6124C18.2557 21.9968 18.5063 22.2244 18.8482 22.3795C19.2271 22.5515 19.7927 22.6666 20.667 22.6666C21.5412 22.6666 22.1069 22.5515 22.4858 22.3795C22.8277 22.2244 23.0783 21.9968 23.2876 21.6124C23.5164 21.1923 23.7055 20.5632 23.8291 19.6098C23.9518 18.6635 24.0003 17.4805 24.0003 16C24.0003 14.5194 23.9518 13.3364 23.8291 12.3901C23.7055 11.4367 23.5164 10.8076 23.2876 10.3875C23.0783 10.0031 22.8277 9.77552 22.4858 9.62038C22.1069 9.44843 21.5412 9.33329 20.667 9.33329C19.7927 9.33329 19.2271 9.44843 18.8482 9.62038C18.5063 9.77552 18.2557 10.0031 18.0463 10.3875C17.8176 10.8076 17.6285 11.4367 17.5049 12.3901Z" fill="#33363F"/>
<path fill-rule="evenodd" clip-rule="evenodd" d="M16.7373 8.14069C17.396 7.81137 18.1969 8.07834 18.5262 8.73697L25.1929 22.0703C25.5222 22.7289 25.2552 23.5298 24.5966 23.8592C23.9379 24.1885 23.137 23.9215 22.8077 23.2629L16.1411 9.92954C15.8117 9.27091 16.0787 8.47001 16.7373 8.14069Z" fill="#33363F"/>
</svg>
