<svg width="36" height="36" viewBox="0 0 36 36" fill="none" xmlns="http://www.w3.org/2000/svg">
<path fill-rule="evenodd" clip-rule="evenodd" d="M16.5 7.5C11.5294 7.5 7.5 11.5294 7.5 16.5C7.5 21.4706 11.5294 25.5 16.5 25.5C21.4706 25.5 25.5 21.4706 25.5 16.5C25.5 11.5294 21.4706 7.5 16.5 7.5ZM4.5 16.5C4.5 9.87258 9.87258 4.5 16.5 4.5C23.1274 4.5 28.5 9.87258 28.5 16.5C28.5 23.1274 23.1274 28.5 16.5 28.5C9.87258 28.5 4.5 23.1274 4.5 16.5Z" fill="#999999"/>
<path fill-rule="evenodd" clip-rule="evenodd" d="M24.4393 24.4393C25.0251 23.8536 25.9749 23.8536 26.5607 24.4393L31.0607 28.9393C31.6464 29.5251 31.6464 30.4749 31.0607 31.0607C30.4749 31.6464 29.5251 31.6464 28.9393 31.0607L24.4393 26.5607C23.8536 25.9749 23.8536 25.0251 24.4393 24.4393Z" fill="#999999"/>
</svg>
