<svg width="24" height="24" viewBox="0 0 24 24" fill="none" xmlns="http://www.w3.org/2000/svg">
<path d="M7.26562 18V6.6875H12.1094C14.6875 6.6875 16.0469 7.79688 16.0469 9.53125C16.0469 10.7812 15.1562 11.7344 13.875 12V12.1094C15.2969 12.1562 16.4844 13.2031 16.4844 14.8125C16.4844 16.6562 14.9844 18 12.5156 18H7.26562ZM11.75 15.6094C12.8125 15.6094 13.3438 15.2031 13.3438 14.4375C13.3438 13.6094 12.75 13.1406 11.7969 13.1406H10.2344V15.6094H11.75ZM11.5625 11.2812C12.3906 11.2812 12.9844 10.875 12.9844 10.1562C12.9844 9.4375 12.4219 9.03125 11.6094 9.03125H10.2344V11.2812H11.5625Z" fill="#1D1D1D"/>
</svg>
