<svg width="24" height="24" viewBox="0 0 24 24" fill="none" xmlns="http://www.w3.org/2000/svg">
<path d="M3.75 6.75C4.16421 6.75 4.5 6.41421 4.5 6C4.5 5.58579 4.16421 5.25 3.75 5.25C3.33579 5.25 3 5.58579 3 6C3 6.41421 3.33579 6.75 3.75 6.75Z" fill="#1D1D1D"/>
<path d="M9 6.75H21V5.25H9V6.75Z" fill="#1D1D1D"/>
<path d="M4.5 12C4.5 12.4142 4.16421 12.75 3.75 12.75C3.33579 12.75 3 12.4142 3 12C3 11.5858 3.33579 11.25 3.75 11.25C4.16421 11.25 4.5 11.5858 4.5 12Z" fill="#1D1D1D"/>
<path d="M9 12.75H21V11.25H9V12.75Z" fill="#1D1D1D"/>
<path d="M4.5 18C4.5 18.4142 4.16421 18.75 3.75 18.75C3.33579 18.75 3 18.4142 3 18C3 17.5858 3.33579 17.25 3.75 17.25C4.16421 17.25 4.5 17.5858 4.5 18Z" fill="#1D1D1D"/>
<path d="M9 18.75H21V17.25H9V18.75Z" fill="#1D1D1D"/>
</svg>
