<svg width="40" height="40" viewBox="0 0 40 40" fill="none" xmlns="http://www.w3.org/2000/svg">
<path fill-rule="evenodd" clip-rule="evenodd" d="M11.6058 9.16669H28.3944C29.9139 9.16666 31.1387 9.16665 32.102 9.29616C33.1021 9.43062 33.9442 9.71828 34.613 10.3871C35.2818 11.0559 35.5695 11.898 35.7039 12.8981C35.8335 13.8614 35.8334 15.0862 35.8334 16.6057V28.3944C35.8334 29.9139 35.8335 31.1387 35.7039 32.102C35.5695 33.1021 35.2818 33.9442 34.613 34.613C33.9442 35.2818 33.1021 35.5694 32.102 35.7039C31.1387 35.8334 29.9139 35.8334 28.3944 35.8334H11.6058C10.0862 35.8334 8.86144 35.8334 7.89814 35.7039C6.89802 35.5694 6.05593 35.2818 5.38714 34.613C4.71834 33.9442 4.43068 33.1021 4.29622 32.102C4.16671 31.1387 4.16673 29.9139 4.16675 28.3943V16.6057C4.16673 15.0862 4.16671 13.8614 4.29622 12.8981C4.43068 11.898 4.71834 11.0559 5.38714 10.3871C6.05593 9.71828 6.89802 9.43062 7.89814 9.29616C8.86143 9.16665 10.0862 9.16666 11.6058 9.16669ZM8.12022 10.948C7.30491 11.0576 6.87316 11.2581 6.56565 11.5656C6.25813 11.8731 6.05764 12.3048 5.94802 13.1202C5.83519 13.9594 5.83342 15.0718 5.83342 16.6667V28.3334C5.83342 29.9283 5.83519 31.0406 5.94802 31.8799C6.05764 32.6952 6.25813 33.1269 6.56565 33.4345C6.87316 33.742 7.30491 33.9425 8.12022 34.0521C8.95949 34.1649 10.0718 34.1667 11.6667 34.1667H28.3334C29.9283 34.1667 31.0407 34.1649 31.8799 34.0521C32.6953 33.9425 33.127 33.742 33.4345 33.4345C33.742 33.1269 33.9425 32.6952 34.0521 31.8799C34.165 31.0406 34.1667 29.9283 34.1667 28.3334V16.6667C34.1667 15.0718 34.165 13.9594 34.0521 13.1202C33.9425 12.3048 33.742 11.8731 33.4345 11.5656C33.127 11.2581 32.6953 11.0576 31.8799 10.948C31.0407 10.8351 29.9283 10.8334 28.3334 10.8334H11.6667C10.0718 10.8334 8.9595 10.8351 8.12022 10.948Z" fill="#999999"/>
<path d="M5 16.6667C5 13.524 5 11.9526 5.97631 10.9763C6.95262 10 8.52397 10 11.6667 10H28.3333C31.476 10 33.0474 10 34.0237 10.9763C35 11.9526 35 13.524 35 16.6667H5Z" fill="#999999"/>
<path fill-rule="evenodd" clip-rule="evenodd" d="M11.6667 4.16669C12.1269 4.16669 12.5 4.53978 12.5 5.00002L12.5 10C12.5 10.4603 12.1269 10.8334 11.6667 10.8334C11.2064 10.8334 10.8333 10.4603 10.8333 10L10.8333 5.00002C10.8333 4.53978 11.2064 4.16669 11.6667 4.16669Z" fill="#999999"/>
<path fill-rule="evenodd" clip-rule="evenodd" d="M28.3334 4.16669C28.7937 4.16669 29.1667 4.53978 29.1667 5.00002L29.1667 10C29.1667 10.4603 28.7937 10.8334 28.3334 10.8334C27.8732 10.8334 27.5001 10.4603 27.5001 10L27.5001 5.00002C27.5001 4.53978 27.8732 4.16669 28.3334 4.16669Z" fill="#999999"/>
<path d="M11.6667 21.6667C11.6667 20.881 11.6667 20.4882 11.9108 20.2441C12.1549 20 12.5477 20 13.3334 20H16.6667C17.4524 20 17.8453 20 18.0893 20.2441C18.3334 20.4882 18.3334 20.881 18.3334 21.6667C18.3334 22.4523 18.3334 22.8452 18.0893 23.0893C17.8453 23.3333 17.4524 23.3333 16.6667 23.3333H13.3334C12.5477 23.3333 12.1549 23.3333 11.9108 23.0893C11.6667 22.8452 11.6667 22.4523 11.6667 21.6667Z" fill="#999999"/>
<path d="M11.6667 28.3334C11.6667 27.5477 11.6667 27.1548 11.9108 26.9108C12.1549 26.6667 12.5477 26.6667 13.3334 26.6667H16.6667C17.4524 26.6667 17.8453 26.6667 18.0893 26.9108C18.3334 27.1548 18.3334 27.5477 18.3334 28.3334C18.3334 29.119 18.3334 29.5119 18.0893 29.7559C17.8453 30 17.4524 30 16.6667 30H13.3334C12.5477 30 12.1549 30 11.9108 29.7559C11.6667 29.5119 11.6667 29.119 11.6667 28.3334Z" fill="#999999"/>
<path d="M21.6667 21.6667C21.6667 20.881 21.6667 20.4882 21.9108 20.2441C22.1549 20 22.5477 20 23.3334 20H26.6667C27.4524 20 27.8453 20 28.0893 20.2441C28.3334 20.4882 28.3334 20.881 28.3334 21.6667C28.3334 22.4523 28.3334 22.8452 28.0893 23.0893C27.8453 23.3333 27.4524 23.3333 26.6667 23.3333H23.3334C22.5477 23.3333 22.1549 23.3333 21.9108 23.0893C21.6667 22.8452 21.6667 22.4523 21.6667 21.6667Z" fill="#999999"/>
<path d="M21.6667 28.3334C21.6667 27.5477 21.6667 27.1548 21.9108 26.9108C22.1549 26.6667 22.5477 26.6667 23.3334 26.6667H26.6667C27.4524 26.6667 27.8453 26.6667 28.0893 26.9108C28.3334 27.1548 28.3334 27.5477 28.3334 28.3334C28.3334 29.119 28.3334 29.5119 28.0893 29.7559C27.8453 30 27.4524 30 26.6667 30H23.3334C22.5477 30 22.1549 30 21.9108 29.7559C21.6667 29.5119 21.6667 29.119 21.6667 28.3334Z" fill="#999999"/>
</svg>
