<svg width="40" height="40" viewBox="0 0 40 40" fill="none" xmlns="http://www.w3.org/2000/svg">
<path fill-rule="evenodd" clip-rule="evenodd" d="M17.6763 9.94584C16.7225 10.5758 15.6036 11.5328 14.0345 12.8778L12.3678 14.3064C10.5918 15.8287 9.9113 16.4354 9.54793 17.2255C9.18456 18.0155 9.16673 18.927 9.16673 21.2662V28.3336C9.16673 29.9285 9.1685 31.0408 9.28134 31.8801C9.39095 32.6954 9.59145 33.1271 9.89897 33.4347C10.2065 33.7422 10.6382 33.9427 11.4535 34.0523C12.2928 34.1651 13.4052 34.1669 15.0001 34.1669H25.0001C26.595 34.1669 27.7073 34.1651 28.5466 34.0523C29.3619 33.9427 29.7936 33.7422 30.1012 33.4347C30.4087 33.1271 30.6092 32.6954 30.7188 31.8801C30.8316 31.0408 30.8334 29.9285 30.8334 28.3336V21.2662C30.8334 18.927 30.8156 18.0155 30.4522 17.2255C30.0888 16.4354 29.4084 15.8287 27.6323 14.3064L25.9657 12.8778C24.3965 11.5328 23.2776 10.5758 22.3238 9.94584C21.3895 9.32876 20.6996 9.08561 20.0001 9.08561C19.3005 9.08561 18.6107 9.32876 17.6763 9.94584ZM16.7578 8.55512C17.8387 7.84126 18.85 7.41895 20.0001 7.41895C21.1501 7.41895 22.1615 7.84126 23.2423 8.55512C24.2936 9.24944 25.4909 10.2757 27.0066 11.5749L28.717 13.041C28.768 13.0847 28.8183 13.1278 28.8682 13.1705C30.4405 14.5175 31.4318 15.3668 31.9664 16.5291C32.501 17.6913 32.5006 18.9967 32.5001 21.0672C32.5001 21.1327 32.5001 21.1991 32.5001 21.2662V28.3945C32.5001 29.9141 32.5001 31.1389 32.3706 32.1022C32.2361 33.1023 31.9485 33.9444 31.2797 34.6132C30.6109 35.282 29.7688 35.5696 28.7687 35.7041C27.8054 35.8336 26.5806 35.8336 25.0611 35.8336H14.9391C13.4195 35.8336 12.1947 35.8336 11.2315 35.7041C10.2313 35.5696 9.38925 35.282 8.72045 34.6132C8.05166 33.9444 7.764 33.1023 7.62954 32.1022C7.50002 31.1389 7.50004 29.9141 7.50007 28.3945L7.50007 21.2662C7.50007 21.1991 7.50005 21.1327 7.50003 21.0671C7.49951 18.9967 7.49918 17.6913 8.03374 16.5291C8.5683 15.3668 9.55965 14.5175 11.132 13.1705C11.1818 13.1278 11.2322 13.0847 11.2832 13.041L12.9936 11.5749C14.5092 10.2757 15.7066 9.24944 16.7578 8.55512Z" fill="#999999"/>
<path fill-rule="evenodd" clip-rule="evenodd" d="M15 26.667C15 25.2863 16.1193 24.167 17.5 24.167H22.5C23.8807 24.167 25 25.2863 25 26.667V35.0003C25 35.4606 24.6269 35.8337 24.1667 35.8337C23.7064 35.8337 23.3333 35.4606 23.3333 35.0003V26.667C23.3333 26.2068 22.9602 25.8337 22.5 25.8337H17.5C17.0398 25.8337 16.6667 26.2068 16.6667 26.667V35.0003C16.6667 35.4606 16.2936 35.8337 15.8333 35.8337C15.3731 35.8337 15 35.4606 15 35.0003V26.667Z" fill="#999999"/>
</svg>
