<svg width="25" height="24" viewBox="0 0 25 24" fill="none" xmlns="http://www.w3.org/2000/svg">
<path fill-rule="evenodd" clip-rule="evenodd" d="M5.44561 5.00001C5.46372 5.00001 5.48186 5.00001 5.50001 5.00001L16.4627 5.00001C16.6959 4.99997 16.9337 4.99992 17.1396 5.01912C17.3759 5.04115 17.64 5.09295 17.9085 5.23667C18.1771 5.38038 18.3667 5.57144 18.5161 5.75581C18.6463 5.9165 18.7782 6.11436 18.9075 6.30843L21.6146 10.3691C21.7746 10.609 21.9357 10.8505 22.0509 11.0719C22.1826 11.3252 22.2982 11.6306 22.2982 12C22.2982 12.3695 22.1826 12.6748 22.0509 12.9281C21.9357 13.1495 21.7746 13.391 21.6146 13.6309L18.9075 17.6916C18.7782 17.8857 18.6463 18.0835 18.5161 18.2442C18.3667 18.4286 18.1771 18.6196 17.9085 18.7634C17.64 18.9071 17.3759 18.9589 17.1396 18.9809C16.9337 19.0001 16.6959 19.0001 16.4627 19L5.50001 19C5.48186 19 5.46372 19 5.4456 19C5.02153 19.0001 4.60941 19.0002 4.26949 18.9545C3.88629 18.903 3.44902 18.7774 3.0858 18.4142C2.72259 18.051 2.59706 17.6137 2.54554 17.2305C2.49984 16.8906 2.49992 16.4785 2.50001 16.0544C2.50001 16.0363 2.50001 16.0182 2.50001 16V8.00001C2.50001 7.98186 2.50001 7.96372 2.50001 7.94561C2.49992 7.52154 2.49984 7.10941 2.54554 6.76949C2.59706 6.38629 2.72259 5.94902 3.0858 5.5858C3.44902 5.22259 3.88629 5.09706 4.26949 5.04554C4.60941 4.99984 5.02154 4.99992 5.44561 5.00001ZM4.52871 7.02871C4.52838 7.03108 4.52804 7.03351 4.52771 7.03599C4.50214 7.22618 4.50001 7.50034 4.50001 8.00001V16C4.50001 16.4997 4.50214 16.7738 4.52771 16.964C4.52804 16.9665 4.52837 16.9689 4.52871 16.9713C4.53108 16.9717 4.53351 16.972 4.53599 16.9723C4.72618 16.9979 5.00034 17 5.50001 17H16.4296C16.7099 17 16.8523 16.999 16.9539 16.9895C16.9556 16.9894 16.9573 16.9892 16.959 16.9891C16.96 16.9878 16.9611 16.9865 16.9622 16.9851C17.0264 16.9058 17.1062 16.7879 17.2617 16.5547L19.9284 12.5547C20.1197 12.2677 20.2178 12.1181 20.2766 12.0051C20.2775 12.0034 20.2784 12.0017 20.2792 12C20.2784 11.9984 20.2775 11.9967 20.2766 11.9949C20.2178 11.882 20.1197 11.7323 19.9284 11.4453L17.2617 7.44531C17.1062 7.21212 17.0264 7.09419 16.9622 7.01491C16.9611 7.01356 16.96 7.01225 16.959 7.01097C16.9573 7.01081 16.9556 7.01065 16.9539 7.01049C16.8523 7.00101 16.7099 7.00001 16.4296 7.00001H5.50001C5.00034 7.00001 4.72618 7.00214 4.53599 7.02771C4.53351 7.02804 4.53108 7.02837 4.52871 7.02871Z" fill="#33363F"/>
<path d="M16.5 12C16.5 12.5523 16.0523 13 15.5 13C14.9477 13 14.5 12.5523 14.5 12C14.5 11.4477 14.9477 11 15.5 11C16.0523 11 16.5 11.4477 16.5 12Z" fill="#33363F"/>
<path fill-rule="evenodd" clip-rule="evenodd" d="M13.5 12C13.5 10.8954 14.3954 10 15.5 10C16.6046 10 17.5 10.8954 17.5 12C17.5 13.1046 16.6046 14 15.5 14C14.3954 14 13.5 13.1046 13.5 12Z" fill="#33363F"/>
</svg>
