<svg width="25" height="24" viewBox="0 0 25 24" fill="none" xmlns="http://www.w3.org/2000/svg">
<path fill-rule="evenodd" clip-rule="evenodd" d="M7.5 9C5.84315 9 4.5 10.3431 4.5 12C4.5 13.6569 5.84315 15 7.5 15H10.5C11.0523 15 11.5 15.4477 11.5 16C11.5 16.5523 11.0523 17 10.5 17H7.5C4.73858 17 2.5 14.7614 2.5 12C2.5 9.23858 4.73858 7 7.5 7H10.5C11.0523 7 11.5 7.44772 11.5 8C11.5 8.55228 11.0523 9 10.5 9H7.5Z" fill="#33363F"/>
<path fill-rule="evenodd" clip-rule="evenodd" d="M7.5 12C7.5 11.4477 7.94772 11 8.5 11H16.5C17.0523 11 17.5 11.4477 17.5 12C17.5 12.5523 17.0523 13 16.5 13H8.5C7.94772 13 7.5 12.5523 7.5 12Z" fill="#33363F"/>
<path fill-rule="evenodd" clip-rule="evenodd" d="M17.5 9C19.1569 9 20.5 10.3431 20.5 12C20.5 13.6569 19.1569 15 17.5 15H14.5C13.9477 15 13.5 15.4477 13.5 16C13.5 16.5523 13.9477 17 14.5 17H17.5C20.2614 17 22.5 14.7614 22.5 12C22.5 9.23858 20.2614 7 17.5 7H14.5C13.9477 7 13.5 7.44772 13.5 8C13.5 8.55228 13.9477 9 14.5 9H17.5Z" fill="#33363F"/>
</svg>
