<svg width="25" height="24" viewBox="0 0 25 24" fill="none" xmlns="http://www.w3.org/2000/svg">
<path fill-rule="evenodd" clip-rule="evenodd" d="M6.5 7C6.5 4.23858 8.73858 2 11.5 2C14.2614 2 16.5 4.23858 16.5 7V15C16.5 16.6569 15.1569 18 13.5 18C11.8431 18 10.5 16.6569 10.5 15V7C10.5 6.44772 10.9477 6 11.5 6C12.0523 6 12.5 6.44772 12.5 7V15C12.5 15.5523 12.9477 16 13.5 16C14.0523 16 14.5 15.5523 14.5 15V7C14.5 5.34315 13.1569 4 11.5 4C9.84315 4 8.5 5.34315 8.5 7V15C8.5 17.7614 10.7386 20 13.5 20C16.2614 20 18.5 17.7614 18.5 15V10C18.5 9.44772 18.9477 9 19.5 9C20.0523 9 20.5 9.44772 20.5 10V15C20.5 18.866 17.366 22 13.5 22C9.63401 22 6.5 18.866 6.5 15V7Z" fill="#33363F"/>
</svg>
