<svg width="25" height="24" viewBox="0 0 25 24" fill="none" xmlns="http://www.w3.org/2000/svg">
<path fill-rule="evenodd" clip-rule="evenodd" d="M12.5 5C9.18629 5 6.5 7.68629 6.5 11C6.5 13.1458 7.59211 14.9159 8.95503 16.2906C10.2777 17.6248 11.7766 18.5032 12.5 18.8837C13.2234 18.5032 14.7223 17.6248 16.045 16.2906C17.4079 14.9159 18.5 13.1458 18.5 11C18.5 7.68629 15.8137 5 12.5 5ZM4.5 11C4.5 6.58172 8.08172 3 12.5 3C16.9183 3 20.5 6.58172 20.5 11C20.5 13.8706 19.0326 16.1178 17.4653 17.6987C15.897 19.2805 14.1448 20.2838 13.3585 20.6917C12.8169 20.9726 12.1831 20.9726 11.6415 20.6917C10.8552 20.2838 9.10299 19.2805 7.53474 17.6987C5.96741 16.1178 4.5 13.8706 4.5 11ZM12.5 9C11.3954 9 10.5 9.89543 10.5 11C10.5 12.1046 11.3954 13 12.5 13C13.6046 13 14.5 12.1046 14.5 11C14.5 9.89543 13.6046 9 12.5 9ZM8.5 11C8.5 8.79086 10.2909 7 12.5 7C14.7091 7 16.5 8.79086 16.5 11C16.5 13.2091 14.7091 15 12.5 15C10.2909 15 8.5 13.2091 8.5 11Z" fill="#33363F"/>
</svg>
