<svg width="40" height="40" viewBox="0 0 40 40" fill="none" xmlns="http://www.w3.org/2000/svg">
<path fill-rule="evenodd" clip-rule="evenodd" d="M20 23.3333C21.8409 23.3333 23.3333 21.8409 23.3333 20C23.3333 18.1591 21.8409 16.6667 20 16.6667C18.1591 16.6667 16.6667 18.1591 16.6667 20C16.6667 21.8409 18.1591 23.3333 20 23.3333ZM20 25C22.7614 25 25 22.7614 25 20C25 17.2386 22.7614 15 20 15C17.2386 15 15 17.2386 15 20C15 22.7614 17.2386 25 20 25Z" fill="#999999"/>
<path fill-rule="evenodd" clip-rule="evenodd" d="M10.2441 28.5775L16.0775 22.7441L17.256 23.9227L11.4227 29.756L10.2441 28.5775Z" fill="#999999"/>
<path fill-rule="evenodd" clip-rule="evenodd" d="M10.5894 9.41083L18.0894 16.9108L16.9109 18.0893L9.41089 10.5893L10.5894 9.41083Z" fill="#999999"/>
<path fill-rule="evenodd" clip-rule="evenodd" d="M28.3333 30C29.2538 30 30 29.2538 30 28.3333C30 27.4129 29.2538 26.6667 28.3333 26.6667C27.4129 26.6667 26.6667 27.4129 26.6667 28.3333C26.6667 29.2538 27.4129 30 28.3333 30ZM28.3333 31.6667C30.1743 31.6667 31.6667 30.1743 31.6667 28.3333C31.6667 26.4924 30.1743 25 28.3333 25C26.4924 25 25 26.4924 25 28.3333C25 30.1743 26.4924 31.6667 28.3333 31.6667Z" fill="#999999"/>
<path fill-rule="evenodd" clip-rule="evenodd" d="M33.3333 21.6667C34.2538 21.6667 35 20.9205 35 20C35 19.0795 34.2538 18.3334 33.3333 18.3334C32.4129 18.3334 31.6667 19.0795 31.6667 20C31.6667 20.9205 32.4129 21.6667 33.3333 21.6667ZM33.3333 23.3334C35.1743 23.3334 36.6667 21.841 36.6667 20C36.6667 18.1591 35.1743 16.6667 33.3333 16.6667C31.4924 16.6667 30 18.1591 30 20C30 21.841 31.4924 23.3334 33.3333 23.3334Z" fill="#999999"/>
<path fill-rule="evenodd" clip-rule="evenodd" d="M24.1667 19.1667H30.8334V20.8334H24.1667V19.1667Z" fill="#999999"/>
<path fill-rule="evenodd" clip-rule="evenodd" d="M26.0775 27.256L22.7441 23.9227L23.9227 22.7441L27.256 26.0775L26.0775 27.256Z" fill="#999999"/>
<path fill-rule="evenodd" clip-rule="evenodd" d="M31.6667 11.6666C33.5077 11.6666 35.0001 10.1743 35.0001 8.33331C35.0001 6.49236 33.5077 4.99998 31.6667 4.99998C29.8258 4.99998 28.3334 6.49236 28.3334 8.33331C28.3334 10.1743 29.8258 11.6666 31.6667 11.6666ZM31.6667 13.3333C34.4282 13.3333 36.6667 11.0947 36.6667 8.33331C36.6667 5.57189 34.4282 3.33331 31.6667 3.33331C28.9053 3.33331 26.6667 5.57189 26.6667 8.33331C26.6667 11.0947 28.9053 13.3333 31.6667 13.3333Z" fill="#999999"/>
<path fill-rule="evenodd" clip-rule="evenodd" d="M22.7441 16.0775L27.7441 11.0775L28.9227 12.256L23.9227 17.256L22.7441 16.0775Z" fill="#999999"/>
<path fill-rule="evenodd" clip-rule="evenodd" d="M8.33333 10C9.25381 10 10 9.25381 10 8.33333C10 7.41286 9.25381 6.66667 8.33333 6.66667C7.41286 6.66667 6.66667 7.41286 6.66667 8.33333C6.66667 9.25381 7.41286 10 8.33333 10ZM8.33333 11.6667C10.1743 11.6667 11.6667 10.1743 11.6667 8.33333C11.6667 6.49238 10.1743 5 8.33333 5C6.49238 5 5 6.49238 5 8.33333C5 10.1743 6.49238 11.6667 8.33333 11.6667Z" fill="#999999"/>
<path fill-rule="evenodd" clip-rule="evenodd" d="M8.33325 35C10.1742 35 11.6666 33.5076 11.6666 31.6667C11.6666 29.8257 10.1742 28.3334 8.33325 28.3334C6.4923 28.3334 4.99992 29.8257 4.99992 31.6667C4.99992 33.5076 6.4923 35 8.33325 35ZM8.33325 36.6667C11.0947 36.6667 13.3333 34.4281 13.3333 31.6667C13.3333 28.9053 11.0947 26.6667 8.33325 26.6667C5.57183 26.6667 3.33325 28.9053 3.33325 31.6667C3.33325 34.4281 5.57183 36.6667 8.33325 36.6667Z" fill="#999999"/>
</svg>
