<svg width="40" height="40" viewBox="0 0 40 40" fill="none" xmlns="http://www.w3.org/2000/svg">
<path fill-rule="evenodd" clip-rule="evenodd" d="M18.3333 9.16667C13.2707 9.16667 9.16667 13.2707 9.16667 18.3333C9.16667 23.3959 13.2707 27.5 18.3333 27.5C23.3959 27.5 27.5 23.3959 27.5 18.3333C27.5 13.2707 23.3959 9.16667 18.3333 9.16667ZM7.5 18.3333C7.5 12.3502 12.3502 7.5 18.3333 7.5C24.3164 7.5 29.1667 12.3502 29.1667 18.3333C29.1667 24.3164 24.3164 29.1667 18.3333 29.1667C12.3502 29.1667 7.5 24.3164 7.5 18.3333Z" fill="#999999"/>
<path fill-rule="evenodd" clip-rule="evenodd" d="M27.7441 27.7441C28.0695 27.4186 28.5972 27.4186 28.9226 27.7441L33.9226 32.7441C34.248 33.0695 34.248 33.5972 33.9226 33.9226C33.5972 34.248 33.0695 34.248 32.7441 33.9226L27.7441 28.9226C27.4186 28.5972 27.4186 28.0695 27.7441 27.7441Z" fill="#999999"/>
</svg>
