<svg width="40" height="40" viewBox="0 0 40 40" fill="none" xmlns="http://www.w3.org/2000/svg">
<path fill-rule="evenodd" clip-rule="evenodd" d="M18.9212 2.5H21.0786C21.4199 2.49999 21.7161 2.49998 21.9626 2.51645C22.2236 2.53388 22.484 2.57222 22.7442 2.67512C23.3068 2.89754 23.7696 3.3164 24.0469 3.85403C24.1752 4.10277 24.2392 4.35804 24.2826 4.616C24.3235 4.85967 24.3529 5.15435 24.3869 5.49395L24.3894 5.51948C24.4592 6.21752 24.5073 6.69179 24.5701 7.04084C24.6343 7.39787 24.6955 7.49972 24.7143 7.52444C24.8959 7.76249 25.1913 7.88482 25.488 7.8449C25.5188 7.84076 25.634 7.81195 25.9319 7.60493C26.2232 7.40253 26.5925 7.10115 27.1354 6.65692L27.1553 6.64068C27.4194 6.42455 27.6486 6.23702 27.8498 6.09365C28.0629 5.94187 28.2887 5.80667 28.5553 5.7215C29.1315 5.5374 29.755 5.5685 30.31 5.80902C30.5668 5.92029 30.778 6.07729 30.9749 6.24951C31.1609 6.4122 31.3703 6.62161 31.6116 6.86296L33.1371 8.38841C33.3784 8.62971 33.5878 8.83908 33.7504 9.02503C33.9227 9.2219 34.0797 9.43313 34.1909 9.68993C34.4314 10.245 34.4625 10.8684 34.2785 11.4447C34.1933 11.7113 34.0581 11.9371 33.9063 12.1501C33.7629 12.3513 33.5754 12.5805 33.3593 12.8446L33.343 12.8645C32.8988 13.4075 32.5974 13.7768 32.395 14.0681C32.1879 14.366 32.1591 14.4812 32.155 14.512C32.1151 14.8087 32.2374 15.1041 32.4754 15.2857C32.5002 15.3045 32.602 15.3656 32.9591 15.4299C33.3081 15.4927 33.7824 15.5408 34.4805 15.6106L34.5061 15.6131C34.8457 15.6471 35.1403 15.6765 35.384 15.7174C35.642 15.7608 35.8973 15.8248 36.146 15.9531C36.6836 16.2304 37.1024 16.6932 37.3249 17.2557C37.4278 17.516 37.4661 17.7764 37.4836 18.0374C37.5 18.2839 37.5 18.5801 37.5 18.9213V21.0789C37.5 21.4201 37.5 21.7161 37.4836 21.9626C37.4661 22.2235 37.4278 22.4838 37.325 22.744C37.1025 23.3067 36.6836 23.7697 36.1458 24.047C35.8971 24.1752 35.6419 24.2393 35.384 24.2826C35.1407 24.3234 34.8466 24.3528 34.5078 24.3867C34.5072 24.3868 34.5083 24.3867 34.5078 24.3867L34.4806 24.3894C33.7828 24.4592 33.3086 24.5072 32.9597 24.57C32.6028 24.6342 32.5009 24.6953 32.4762 24.7142C32.238 24.8958 32.1157 25.1913 32.1556 25.4881C32.1598 25.5189 32.1886 25.6341 32.3956 25.9319C32.5979 26.223 32.8992 26.5922 33.3433 27.1349L33.3595 27.1548C33.5756 27.4189 33.763 27.648 33.9064 27.8491C34.0581 28.0621 34.1932 28.2878 34.2784 28.5543C34.4627 29.1307 34.4316 29.7544 34.1909 30.3097C34.0796 30.5663 33.9226 30.7775 33.7505 30.9743C33.5879 31.1601 33.3786 31.3694 33.1374 31.6106L31.6117 33.1363C31.3704 33.3776 31.161 33.5871 30.975 33.7497C30.7781 33.922 30.5669 34.079 30.3101 34.1902C29.755 34.4308 29.1316 34.4619 28.5553 34.2778C28.2887 34.1926 28.0629 34.0574 27.8499 33.9056C27.6487 33.7622 27.4195 33.5747 27.1554 33.3586L27.1391 33.3453L27.1354 33.3424C26.5925 32.8981 26.2232 32.5967 25.932 32.3943C25.6341 32.1873 25.5189 32.1585 25.4881 32.1544C25.1913 32.1144 24.896 32.2368 24.7144 32.4748C24.6955 32.4995 24.6344 32.6014 24.5702 32.9585C24.5073 33.3076 24.4593 33.782 24.3895 34.4801L24.3869 34.5055C24.353 34.8454 24.3235 35.1402 24.2826 35.384C24.2392 35.6421 24.1751 35.8974 24.0468 36.1462C23.7695 36.6837 23.3068 37.1024 22.7445 37.3248C22.4842 37.4277 22.2237 37.4661 21.9626 37.4835C21.716 37.5 21.4198 37.5 21.0785 37.5H18.9213C18.5801 37.5 18.2839 37.5 18.0374 37.4836C17.7764 37.4661 17.516 37.4278 17.2557 37.3249C16.6932 37.1024 16.2304 36.6836 15.9531 36.146C15.8248 35.8973 15.7608 35.642 15.7174 35.384C15.6765 35.1403 15.6471 34.8457 15.6131 34.5061L15.6106 34.4805C15.5408 33.7824 15.4927 33.3081 15.4299 32.9591C15.3656 32.602 15.3045 32.5002 15.2857 32.4755C15.1041 32.2374 14.8087 32.1151 14.512 32.155C14.4812 32.1592 14.366 32.188 14.0681 32.395C13.7792 32.5958 13.4135 32.8939 12.8777 33.3323M12.8645 33.3431L12.8446 33.3593C12.5804 33.5755 12.3512 33.763 12.15 33.9064C11.937 34.0582 11.7112 34.1934 11.4445 34.2785C10.8683 34.4626 10.2449 34.4315 9.68989 34.191C9.43308 34.0798 9.22184 33.9227 9.02496 33.7505C8.83896 33.5878 8.62953 33.3784 8.38816 33.137L6.86293 31.6117C6.62156 31.3704 6.41213 31.161 6.24943 30.975C6.07721 30.7781 5.9202 30.5669 5.80893 30.3101C5.56843 29.755 5.53733 29.1316 5.72141 28.5554C5.80658 28.2888 5.94179 28.063 6.09357 27.8499C6.23695 27.6487 6.4245 27.4195 6.64065 27.1553L6.65688 27.1355C7.10111 26.5925 7.4025 26.2232 7.60491 25.9319C7.81194 25.634 7.84075 25.5188 7.84489 25.488C7.88481 25.1913 7.76248 24.8959 7.52444 24.7143C7.49971 24.6955 7.39786 24.6343 7.04084 24.5701C6.69178 24.5073 6.21751 24.4592 5.51947 24.3894L5.49393 24.3869C5.15434 24.3529 4.85967 24.3235 4.61599 24.2826C4.35804 24.2392 4.10277 24.1752 3.85403 24.0469C3.31639 23.7696 2.89754 23.3068 2.67512 22.7442C2.57222 22.4839 2.53388 22.2236 2.51645 21.9626C2.49998 21.7161 2.49999 21.4199 2.5 21.0786V18.9216C2.49999 18.5802 2.49998 18.284 2.51646 18.0374C2.53389 17.7763 2.57225 17.5159 2.67521 17.2555C2.89762 16.6932 3.31635 16.2305 3.85381 15.9532C4.1026 15.8249 4.35793 15.7608 4.61596 15.7175C4.8597 15.6765 5.15446 15.6471 5.49416 15.6131L5.51968 15.6105C5.52128 15.6104 5.52287 15.6102 5.52447 15.6101C5.53672 15.6088 5.5489 15.6076 5.56102 15.6064C6.2367 15.5388 6.69924 15.4914 7.04145 15.4298C7.39856 15.3656 7.50043 15.3044 7.52516 15.2855C7.7631 15.104 7.8854 14.8087 7.84554 14.5121C7.84139 14.4813 7.8126 14.366 7.6055 14.068C7.40304 13.7767 7.10155 13.4072 6.65717 12.8641L6.64092 12.8442C6.42469 12.5799 6.23707 12.3506 6.09363 12.1493C5.9418 11.9362 5.80654 11.7103 5.72138 11.4436C5.53746 10.8675 5.56854 10.2444 5.80886 9.68951C5.92014 9.43259 6.0772 9.22127 6.24948 9.02432C6.41223 8.83827 6.62172 8.62879 6.86316 8.38737L8.38831 6.86222C8.62965 6.62087 8.83906 6.41144 9.02504 6.24875C9.22192 6.07652 9.43316 5.91951 9.68997 5.80824C10.245 5.56775 10.8684 5.53666 11.4446 5.72072C11.7113 5.80589 11.9371 5.94112 12.1501 6.09292C12.3514 6.23631 12.5806 6.42387 12.8448 6.64004L12.8647 6.65631C13.4076 7.10049 13.7769 7.40185 14.0681 7.60425C14.366 7.81127 14.4812 7.84009 14.512 7.84423C14.8088 7.88421 15.1042 7.76183 15.2858 7.52369C15.3047 7.49897 15.3658 7.39714 15.43 7.04021C15.4928 6.69124 15.5408 6.21711 15.6106 5.51926L15.6131 5.49373C15.6471 5.15423 15.6765 4.85964 15.7174 4.61603C15.7607 4.35814 15.8248 4.10294 15.953 3.85426C16.2303 3.31644 16.6933 2.89745 17.256 2.67502C17.5162 2.57218 17.7765 2.53386 18.0375 2.51644C18.2839 2.49998 18.58 2.49999 18.9212 2.5M28.1909 32.0524L28.1874 32.0495L28.1637 32.0302C27.6548 31.6137 27.2347 31.27 26.8831 31.0257C26.532 30.7817 26.1473 30.5614 25.7103 30.5026C24.8201 30.3828 23.9341 30.7498 23.3893 31.464C23.1218 31.8146 23.0056 32.2424 22.9298 32.6633C22.854 33.0847 22.8 33.6249 22.7346 34.2794L22.7311 34.3143C22.6938 34.6869 22.6695 34.9257 22.6389 35.108C22.6097 35.2821 22.5829 35.3486 22.5656 35.3821C22.4732 35.5612 22.319 35.7008 22.1315 35.7749C22.0965 35.7888 22.0276 35.8088 21.8515 35.8206C21.6672 35.8329 21.4271 35.8333 21.0527 35.8333H18.9471C18.5728 35.8333 18.3328 35.8329 18.1485 35.8206C17.9724 35.8088 17.9036 35.7888 17.8686 35.775C17.6811 35.7008 17.5268 35.5612 17.4344 35.382C17.4171 35.3485 17.3903 35.282 17.3611 35.108C17.3305 34.9258 17.3062 34.6871 17.269 34.3147L17.2655 34.2797C17.2 33.6253 17.146 33.0852 17.0702 32.6639C16.9945 32.243 16.8782 31.8151 16.6107 31.4646C16.066 30.7505 15.18 30.3835 14.2899 30.5032C13.8528 30.562 13.4681 30.7823 13.1169 31.0264C12.7654 31.2707 12.3452 31.6144 11.8363 32.0309L11.8091 32.0531L11.7959 32.0639C11.5138 32.2947 11.3311 32.4434 11.1829 32.549C11.0392 32.6514 10.9733 32.6795 10.9374 32.6909C10.7453 32.7523 10.5375 32.7419 10.3525 32.6617C10.318 32.6468 10.2551 32.6122 10.1223 32.4961C9.98327 32.3744 9.81326 32.205 9.5486 31.9404L8.05954 30.4513C7.79489 30.1867 7.62549 30.0167 7.50386 29.8776C7.3877 29.7448 7.35318 29.682 7.33821 29.6474C7.25804 29.4624 7.24768 29.2546 7.30903 29.0625C7.32049 29.0267 7.34859 28.9607 7.45096 28.817C7.55816 28.6666 7.7098 28.4805 7.94681 28.1909L7.96905 28.1637C8.38548 27.6547 8.7292 27.2346 8.97352 26.8831C9.21756 26.5319 9.43789 26.1472 9.49668 25.7102C9.61643 24.82 9.24943 23.934 8.53531 23.3892C8.18472 23.1218 7.75688 23.0055 7.33602 22.9298C6.91467 22.854 6.37457 22.8 5.72024 22.7345L5.68531 22.731C5.3129 22.6938 5.07416 22.6695 4.89198 22.6389C4.71799 22.6097 4.65147 22.5829 4.61801 22.5656C4.4388 22.4732 4.29918 22.3189 4.22504 22.1314C4.2112 22.0964 4.19116 22.0276 4.17941 21.8515C4.1671 21.6672 4.16667 21.4272 4.16667 21.053V18.9472C4.16667 18.5729 4.1671 18.3328 4.17942 18.1485C4.19118 17.9724 4.21122 17.9035 4.22507 17.8685C4.29921 17.681 4.43879 17.5268 4.61794 17.4344C4.6514 17.4171 4.71794 17.3903 4.89197 17.3611C5.07399 17.3305 5.31245 17.3062 5.68423 17.2691C5.68381 17.2691 5.68466 17.269 5.68423 17.2691L5.72044 17.2654C6.37496 17.2 6.9152 17.146 7.33667 17.0701C7.75764 16.9944 8.18558 16.8781 8.53623 16.6105C9.25006 16.0658 9.61694 15.1801 9.49736 14.2901C9.43862 13.853 9.21824 13.4681 8.97413 13.1169C8.72974 12.7652 8.38591 12.345 7.96936 11.8359L7.94709 11.8087C7.70999 11.5189 7.55828 11.3328 7.45105 11.1823C7.34863 11.0385 7.32053 10.9725 7.30908 10.9366C7.24777 10.7446 7.25813 10.5369 7.33824 10.3519C7.35321 10.3174 7.38774 10.2545 7.50394 10.1216C7.62561 9.98255 7.79506 9.81249 8.05981 9.54774L9.54868 8.05887C9.81334 7.79421 9.98335 7.62481 10.1224 7.50318C10.2552 7.38702 10.318 7.35249 10.3526 7.33752C10.5376 7.25736 10.7454 7.247 10.9375 7.30835C10.9733 7.31981 11.0393 7.34791 11.183 7.4503C11.3335 7.55752 11.5196 7.70919 11.8093 7.94624L11.8365 7.96847C12.3454 8.38485 12.7654 8.72853 13.1169 8.97282C13.468 9.21683 13.8526 9.43715 14.2895 9.49599C15.1799 9.61591 16.0662 9.24879 16.6111 8.53437C16.8784 8.18384 16.9946 7.75611 17.0703 7.33536C17.1461 6.91411 17.2001 6.37414 17.2655 5.71996L17.269 5.6851C17.3062 5.3128 17.3305 5.07411 17.3611 4.89198C17.3903 4.71805 17.4171 4.65154 17.4343 4.61809C17.5268 4.43881 17.6811 4.29915 17.8687 4.22501C17.9037 4.21117 17.9725 4.19115 18.1485 4.1794C18.3328 4.1671 18.5727 4.16667 18.9468 4.16667H21.053C21.4272 4.16667 21.6672 4.1671 21.8515 4.17941C22.0276 4.19116 22.0964 4.2112 22.1314 4.22504C22.3189 4.29918 22.4732 4.4388 22.5656 4.61801C22.5829 4.65147 22.6097 4.71799 22.6389 4.89198C22.6695 5.07416 22.6938 5.31291 22.731 5.68532L22.7345 5.72024C22.8 6.37458 22.854 6.91468 22.9298 7.33603C23.0055 7.75689 23.1218 8.18472 23.3892 8.53531C23.934 9.24945 24.82 9.61645 25.7102 9.49669C26.1472 9.4379 26.5319 9.21758 26.8831 8.97354C27.2346 8.72922 27.6547 8.38552 28.1636 7.96911L28.1908 7.94685C28.4805 7.70986 28.6665 7.55823 28.8169 7.45104C28.9606 7.34867 29.0266 7.32057 29.0625 7.30911C29.2545 7.24775 29.4624 7.25812 29.6474 7.33829C29.6819 7.35326 29.7448 7.38778 29.8776 7.50394C30.0166 7.62556 30.1866 7.79495 30.4512 8.05959L31.9403 9.5487C32.205 9.81335 32.3744 9.98335 32.496 10.1224C32.6122 10.2552 32.6467 10.318 32.6617 10.3526C32.7418 10.5376 32.7522 10.7454 32.6908 10.9375C32.6794 10.9733 32.6513 11.0393 32.5489 11.183C32.4417 11.3335 32.2901 11.5195 32.0531 11.8091L32.0308 11.8363C31.6144 12.3453 31.2707 12.7654 31.0264 13.1169C30.7823 13.4681 30.562 13.8528 30.5032 14.2898C30.3835 15.18 30.7505 16.066 31.4646 16.6108C31.8152 16.8782 32.243 16.9945 32.6639 17.0702C33.0852 17.146 33.6254 17.2 34.2797 17.2655L34.3146 17.269C34.6871 17.3062 34.9258 17.3305 35.108 17.3611C35.282 17.3903 35.3485 17.4171 35.382 17.4344C35.5612 17.5268 35.7008 17.6811 35.775 17.8686C35.7888 17.9036 35.8088 17.9724 35.8206 18.1485C35.8329 18.3328 35.8333 18.5728 35.8333 18.9471V21.0531C35.8333 21.4273 35.8329 21.6672 35.8206 21.8515C35.8088 22.0275 35.7888 22.0964 35.775 22.1314C35.7008 22.3189 35.5612 22.4732 35.3819 22.5657C35.3485 22.5829 35.282 22.6097 35.108 22.6389C34.9258 22.6695 34.6871 22.6938 34.3148 22.731L34.2798 22.7345C33.6257 22.7999 33.0858 22.8539 32.6646 22.9297C32.2438 23.0054 31.8161 23.1216 31.4656 23.3889C30.7511 23.9337 30.3839 24.8201 30.5039 25.7106C30.5628 26.1475 30.783 26.532 31.027 26.8831C31.2712 27.2345 31.6148 27.6544 32.0311 28.1632L32.0533 28.1903C32.2902 28.4799 32.4418 28.6658 32.549 28.8162C32.6513 28.9599 32.6794 29.0258 32.6909 29.0617C32.7523 29.2538 32.7419 29.4617 32.6617 29.6468C32.6467 29.6813 32.6122 29.7442 32.4961 29.8769C32.3745 30.0159 32.2052 30.1858 31.9406 30.4504L30.4513 31.9397C30.1867 32.2043 30.0167 32.3737 29.8776 32.4953C29.7449 32.6115 29.682 32.646 29.6474 32.661C29.4624 32.7411 29.2546 32.7515 29.0625 32.6901C29.0267 32.6787 28.9607 32.6506 28.817 32.5482C28.6666 32.441 28.4806 32.2894 28.1909 32.0524ZM20 14.1667C16.7783 14.1667 14.1667 16.7783 14.1667 20C14.1667 23.2217 16.7783 25.8333 20 25.8333C23.2217 25.8333 25.8333 23.2217 25.8333 20C25.8333 16.7783 23.2217 14.1667 20 14.1667ZM12.5 20C12.5 15.8579 15.8579 12.5 20 12.5C24.1421 12.5 27.5 15.8579 27.5 20C27.5 24.1421 24.1421 27.5 20 27.5C15.8579 27.5 12.5 24.1421 12.5 20Z" fill="#999999"/>
</svg>
