<svg width="25" height="24" viewBox="0 0 25 24" fill="none" xmlns="http://www.w3.org/2000/svg">
<path fill-rule="evenodd" clip-rule="evenodd" d="M23.5 12C23.5 18.0751 18.5751 23 12.5 23C6.42487 23 1.5 18.0751 1.5 12C1.5 5.92487 6.42487 1 12.5 1C18.5751 1 23.5 5.92487 23.5 12ZM12.5 21C17.4706 21 21.5 16.9706 21.5 12C21.5 7.02944 17.4706 3 12.5 3C7.52944 3 3.5 7.02944 3.5 12C3.5 16.9706 7.52944 21 12.5 21Z" fill="#33363F"/>
<path fill-rule="evenodd" clip-rule="evenodd" d="M7.62543 15.1012C7.98699 14.6837 8.61853 14.6384 9.03602 14.9999C9.38706 15.304 9.89199 15.5564 10.5001 15.732C11.1082 15.9075 11.798 15.9999 12.5001 15.9999C13.2023 15.9999 13.892 15.9075 14.5001 15.732C15.1083 15.5564 15.6132 15.304 15.9642 14.9999C16.3817 14.6384 17.0132 14.6837 17.3748 15.1012C17.7364 15.5187 17.691 16.1502 17.2735 16.5118C16.6392 17.0611 15.8458 17.4252 15.0548 17.6535C14.2479 17.8865 13.3697 17.9999 12.5001 17.9999C11.6306 17.9999 10.7523 17.8865 9.94542 17.6535C9.15443 17.4252 8.36099 17.0611 7.72671 16.5118C7.30922 16.1502 7.26388 15.5187 7.62543 15.1012Z" fill="#33363F"/>
<path d="M10.5 10C10.5 10.5523 10.0523 11 9.5 11C8.94772 11 8.5 10.5523 8.5 10C8.5 9.44772 8.94772 9 9.5 9C10.0523 9 10.5 9.44772 10.5 10Z" fill="#33363F"/>
<path fill-rule="evenodd" clip-rule="evenodd" d="M11 10C11 10.8284 10.3284 11.5 9.5 11.5C8.67157 11.5 8 10.8284 8 10C8 9.17157 8.67157 8.5 9.5 8.5C10.3284 8.5 11 9.17157 11 10ZM9.5 11C10.0523 11 10.5 10.5523 10.5 10C10.5 9.44772 10.0523 9 9.5 9C8.94772 9 8.5 9.44772 8.5 10C8.5 10.5523 8.94772 11 9.5 11Z" fill="#33363F"/>
<path d="M16.5 10C16.5 10.5523 16.0523 11 15.5 11C14.9477 11 14.5 10.5523 14.5 10C14.5 9.44772 14.9477 9 15.5 9C16.0523 9 16.5 9.44772 16.5 10Z" fill="#33363F"/>
<path fill-rule="evenodd" clip-rule="evenodd" d="M17 10C17 10.8284 16.3284 11.5 15.5 11.5C14.6716 11.5 14 10.8284 14 10C14 9.17157 14.6716 8.5 15.5 8.5C16.3284 8.5 17 9.17157 17 10ZM15.5 11C16.0523 11 16.5 10.5523 16.5 10C16.5 9.44772 16.0523 9 15.5 9C14.9477 9 14.5 9.44772 14.5 10C14.5 10.5523 14.9477 11 15.5 11Z" fill="#33363F"/>
</svg>
