<svg width="40" height="40" viewBox="0 0 40 40" fill="none" xmlns="http://www.w3.org/2000/svg">
<path fill-rule="evenodd" clip-rule="evenodd" d="M20.0001 5.83335C12.176 5.83335 5.83341 12.176 5.83341 20C5.83341 27.8241 12.176 34.1667 20.0001 34.1667C27.8241 34.1667 34.1667 27.8241 34.1667 20C34.1667 12.176 27.8241 5.83335 20.0001 5.83335ZM4.16675 20C4.16675 11.2555 11.2556 4.16669 20.0001 4.16669C28.7446 4.16669 35.8334 11.2555 35.8334 20C35.8334 28.7445 28.7446 35.8334 20.0001 35.8334C11.2556 35.8334 4.16675 28.7445 4.16675 20Z" fill="#999999"/>
<path fill-rule="evenodd" clip-rule="evenodd" d="M19.1667 20C19.1667 19.5398 19.5398 19.1667 20.0001 19.1667H35.0001C35.4603 19.1667 35.8334 19.5398 35.8334 20C35.8334 20.4603 35.4603 20.8334 35.0001 20.8334H20.0001C19.5398 20.8334 19.1667 20.4603 19.1667 20Z" fill="#999999"/>
<path fill-rule="evenodd" clip-rule="evenodd" d="M20.0001 4.16669C20.4603 4.16669 20.8334 4.53978 20.8334 5.00002V19.6548L30.5893 29.4108C30.9148 29.7362 30.9148 30.2638 30.5893 30.5893C30.2639 30.9147 29.7363 30.9147 29.4108 30.5893L19.484 20.6625C19.2809 20.4593 19.1667 20.1838 19.1667 19.8965V5.00002C19.1667 4.53978 19.5398 4.16669 20.0001 4.16669Z" fill="#999999"/>
</svg>
