<svg width="25" height="24" viewBox="0 0 25 24" fill="none" xmlns="http://www.w3.org/2000/svg">
<path fill-rule="evenodd" clip-rule="evenodd" d="M12.5 14C13.6046 14 14.5 13.1046 14.5 12C14.5 10.8954 13.6046 10 12.5 10C11.3954 10 10.5 10.8954 10.5 12C10.5 13.1046 11.3954 14 12.5 14ZM12.5 16C14.7091 16 16.5 14.2091 16.5 12C16.5 9.79086 14.7091 8 12.5 8C10.2909 8 8.5 9.79086 8.5 12C8.5 14.2091 10.2909 16 12.5 16Z" fill="#33363F"/>
<path fill-rule="evenodd" clip-rule="evenodd" d="M12.5 2C13.0523 2 13.5 2.44772 13.5 3V5C13.5 5.55228 13.0523 6 12.5 6C11.9477 6 11.5 5.55228 11.5 5V3C11.5 2.44772 11.9477 2 12.5 2Z" fill="#33363F"/>
<path fill-rule="evenodd" clip-rule="evenodd" d="M12.5 18C13.0523 18 13.5 18.4477 13.5 19V21C13.5 21.5523 13.0523 22 12.5 22C11.9477 22 11.5 21.5523 11.5 21V19C11.5 18.4477 11.9477 18 12.5 18Z" fill="#33363F"/>
<path fill-rule="evenodd" clip-rule="evenodd" d="M19.5711 4.92891C19.9616 5.31943 19.9616 5.9526 19.5711 6.34312L18.1569 7.75734C17.7664 8.14786 17.1332 8.14786 16.7427 7.75734C16.3522 7.36681 16.3522 6.73365 16.7427 6.34312L18.1569 4.92891C18.5474 4.53838 19.1806 4.53838 19.5711 4.92891Z" fill="#33363F"/>
<path fill-rule="evenodd" clip-rule="evenodd" d="M8.2574 16.2426C8.64792 16.6332 8.64792 17.2663 8.2574 17.6568L6.84319 19.0711C6.45266 19.4616 5.8195 19.4616 5.42897 19.0711C5.03845 18.6805 5.03845 18.0474 5.42897 17.6568L6.84319 16.2426C7.23371 15.8521 7.86688 15.8521 8.2574 16.2426Z" fill="#33363F"/>
<path fill-rule="evenodd" clip-rule="evenodd" d="M22.5 12C22.5 12.5523 22.0523 13 21.5 13L19.5 13C18.9477 13 18.5 12.5523 18.5 12C18.5 11.4477 18.9477 11 19.5 11L21.5 11C22.0523 11 22.5 11.4477 22.5 12Z" fill="#33363F"/>
<path fill-rule="evenodd" clip-rule="evenodd" d="M6.5 12C6.5 12.5523 6.05228 13 5.5 13L3.5 13C2.94771 13 2.5 12.5523 2.5 12C2.5 11.4477 2.94772 11 3.5 11L5.5 11C6.05228 11 6.5 11.4477 6.5 12Z" fill="#33363F"/>
<path fill-rule="evenodd" clip-rule="evenodd" d="M19.571 19.0711C19.1804 19.4616 18.5473 19.4616 18.1568 19.0711L16.7425 17.6569C16.352 17.2664 16.352 16.6332 16.7425 16.2427C17.1331 15.8522 17.7662 15.8522 18.1568 16.2427L19.571 17.6569C19.9615 18.0474 19.9615 18.6806 19.571 19.0711Z" fill="#33363F"/>
<path fill-rule="evenodd" clip-rule="evenodd" d="M8.25725 7.7574C7.86672 8.14792 7.23356 8.14792 6.84304 7.7574L5.42882 6.34319C5.0383 5.95266 5.0383 5.3195 5.42882 4.92897C5.81935 4.53845 6.45251 4.53845 6.84304 4.92897L8.25725 6.34319C8.64777 6.73371 8.64777 7.36688 8.25725 7.7574Z" fill="#33363F"/>
</svg>
