<svg width="24" height="24" viewBox="0 0 24 24" fill="none" xmlns="http://www.w3.org/2000/svg">
<path fill-rule="evenodd" clip-rule="evenodd" d="M14 8H22V18C22 18.0182 22 18.0363 22 18.0544C22.0001 18.4785 22.0002 18.8906 21.9545 19.2305C21.903 19.6137 21.7774 20.051 21.4142 20.4142C21.051 20.7774 20.6137 20.903 20.2305 20.9545C19.8906 21.0002 19.4785 21.0001 19.0544 21C19.0363 21 19.0182 21 19 21H14V8ZM16 10V19H19C19.4997 19 19.7738 18.9979 19.964 18.9723C19.9665 18.972 19.9689 18.9716 19.9713 18.9713C19.9716 18.9689 19.972 18.9665 19.9723 18.964C19.9979 18.7738 20 18.4997 20 18V10H16Z" fill="#1D1D1D"/>
<path fill-rule="evenodd" clip-rule="evenodd" d="M2.00001 8H10V21H5.00001C4.98186 21 4.96372 21 4.9456 21C4.52153 21.0001 4.10941 21.0002 3.76949 20.9545C3.38629 20.903 2.94902 20.7774 2.5858 20.4142C2.22259 20.051 2.09706 19.6137 2.04554 19.2305C1.99984 18.8906 1.99992 18.4785 2.00001 18.0544C2.00001 18.0363 2.00001 18.0182 2.00001 18V8ZM4.00001 10V18C4.00001 18.4997 4.00214 18.7738 4.02771 18.964C4.02804 18.9665 4.02837 18.9689 4.02871 18.9713C4.03108 18.9716 4.03351 18.972 4.03599 18.9723C4.22618 18.9979 4.50034 19 5.00001 19H8.00001V10H4.00001Z" fill="#1D1D1D"/>
<path fill-rule="evenodd" clip-rule="evenodd" d="M8 8H16V21H8V8ZM10 10V19H14V10H10Z" fill="#1D1D1D"/>
<path fill-rule="evenodd" clip-rule="evenodd" d="M4.94561 3.00001C4.96372 3.00001 4.98186 3.00001 5.00001 3.00001H19C19.0182 3.00001 19.0363 3.00001 19.0544 3.00001C19.4785 2.99992 19.8906 2.99984 20.2305 3.04554C20.6137 3.09706 21.051 3.22259 21.4142 3.5858C21.7774 3.94902 21.903 4.38629 21.9545 4.76949C22.0002 5.10941 22.0001 5.52155 22 5.94562C22 5.96373 22 5.98187 22 6.00001V10H2.00001V6.00001C2.00001 5.98186 2.00001 5.96372 2.00001 5.94561C1.99992 5.52154 1.99984 5.10941 2.04554 4.76949C2.09706 4.38629 2.22259 3.94902 2.5858 3.5858C2.94902 3.22259 3.38629 3.09706 3.76949 3.04554C4.10941 2.99984 4.52154 2.99992 4.94561 3.00001ZM4.02871 5.02871C4.02838 5.03108 4.02804 5.03351 4.02771 5.03599C4.00214 5.22618 4.00001 5.50034 4.00001 6.00001V8.00001H20V6.00001C20 5.50034 19.9979 5.22618 19.9723 5.03599C19.972 5.03351 19.9717 5.03108 19.9713 5.02871C19.9689 5.02838 19.9665 5.02804 19.964 5.02771C19.7738 5.00214 19.4997 5.00001 19 5.00001H5.00001C4.50034 5.00001 4.22618 5.00214 4.03599 5.02771C4.03351 5.02804 4.03108 5.02837 4.02871 5.02871Z" fill="#1D1D1D"/>
</svg>
