<svg width="24" height="24" viewBox="0 0 24 24" fill="none" xmlns="http://www.w3.org/2000/svg">
<path fill-rule="evenodd" clip-rule="evenodd" d="M14.5 8.5H21.5L21.5 18.0329C21.5 18.4762 21.5 18.8581 21.4589 19.1639C21.4149 19.4917 21.3155 19.8058 21.0607 20.0607C20.8058 20.3155 20.4917 20.4149 20.1639 20.4589C19.8581 20.5 19.4762 20.5 19.0329 20.5L14.5 20.5V8.5ZM15.5 9.5V19.5H19C19.4855 19.5 19.7994 19.4989 20.0306 19.4678C20.2475 19.4387 20.3155 19.3916 20.3536 19.3536C20.3916 19.3155 20.4387 19.2475 20.4678 19.0306C20.4989 18.7994 20.5 18.4855 20.5 18V9.5H15.5Z" fill="#33363F"/>
<path fill-rule="evenodd" clip-rule="evenodd" d="M2.5 8.5H9.5V20.5L4.9671 20.5C4.52385 20.5 4.14194 20.5 3.83611 20.4589C3.50835 20.4149 3.19417 20.3155 2.93934 20.0607C2.68451 19.8058 2.58514 19.4917 2.54107 19.1639C2.49995 18.8581 2.49998 18.4762 2.5 18.0329L2.5 8.5ZM3.5 9.5V18C3.5 18.4855 3.50106 18.7994 3.53216 19.0306C3.56131 19.2475 3.60839 19.3155 3.64645 19.3536C3.68451 19.3916 3.75248 19.4387 3.96935 19.4678C4.20061 19.4989 4.51446 19.5 5 19.5H8.5V9.5H3.5Z" fill="#33363F"/>
<path fill-rule="evenodd" clip-rule="evenodd" d="M8.5 8.5H15.5V20.5H8.5V8.5ZM9.5 9.5V19.5H14.5V9.5H9.5Z" fill="#33363F"/>
<path fill-rule="evenodd" clip-rule="evenodd" d="M4.96709 3.5C4.97802 3.5 4.98899 3.5 5 3.5L19.0329 3.5C19.4762 3.49998 19.8581 3.49995 20.1639 3.54107C20.4917 3.58514 20.8058 3.68451 21.0607 3.93934C21.3155 4.19417 21.4149 4.50835 21.4589 4.83611C21.5 5.14193 21.5 5.52384 21.5 5.96707V9.5H2.5V6C2.5 5.98899 2.5 5.97802 2.5 5.96709C2.49998 5.52384 2.49995 5.14194 2.54107 4.83611C2.58514 4.50835 2.68451 4.19417 2.93934 3.93934C3.19417 3.68451 3.50835 3.58514 3.83611 3.54107C4.14194 3.49995 4.52384 3.49998 4.96709 3.5ZM3.96935 4.53216C3.75248 4.56131 3.68451 4.60839 3.64645 4.64645C3.60839 4.68451 3.56131 4.75248 3.53216 4.96935C3.50106 5.20061 3.5 5.51446 3.5 6V8.5H20.5V6C20.5 5.51446 20.4989 5.20061 20.4678 4.96935C20.4387 4.75248 20.3916 4.68451 20.3536 4.64645C20.3155 4.60839 20.2475 4.56131 20.0306 4.53216C19.7994 4.50106 19.4855 4.5 19 4.5H5C4.51446 4.5 4.20061 4.50106 3.96935 4.53216Z" fill="#1D1D1D"/>
</svg>
