<svg width="24" height="25" viewBox="0 0 24 25" fill="none" xmlns="http://www.w3.org/2000/svg">
<path fill-rule="evenodd" clip-rule="evenodd" d="M14 8.5H22V18.5C22 18.5182 22 18.5363 22 18.5544C22.0001 18.9785 22.0002 19.3906 21.9545 19.7305C21.903 20.1137 21.7774 20.551 21.4142 20.9142C21.051 21.2774 20.6137 21.403 20.2305 21.4545C19.8906 21.5002 19.4785 21.5001 19.0544 21.5C19.0363 21.5 19.0182 21.5 19 21.5H14V8.5ZM16 10.5V19.5H19C19.4997 19.5 19.7738 19.4979 19.964 19.4723C19.9665 19.472 19.9689 19.4716 19.9713 19.4713C19.9716 19.4689 19.972 19.4665 19.9723 19.464C19.9979 19.2738 20 18.9997 20 18.5V10.5H16Z" fill="#47588C"/>
<path fill-rule="evenodd" clip-rule="evenodd" d="M2.00001 8.5H10V21.5H5.00001C4.98186 21.5 4.96372 21.5 4.9456 21.5C4.52153 21.5001 4.10941 21.5002 3.76949 21.4545C3.38629 21.403 2.94902 21.2774 2.5858 20.9142C2.22259 20.551 2.09706 20.1137 2.04554 19.7305C1.99984 19.3906 1.99992 18.9785 2.00001 18.5544C2.00001 18.5363 2.00001 18.5182 2.00001 18.5V8.5ZM4.00001 10.5V18.5C4.00001 18.9997 4.00214 19.2738 4.02771 19.464C4.02804 19.4665 4.02837 19.4689 4.02871 19.4713C4.03108 19.4716 4.03351 19.472 4.03599 19.4723C4.22618 19.4979 4.50034 19.5 5.00001 19.5H8.00001V10.5H4.00001Z" fill="#47588C"/>
<path fill-rule="evenodd" clip-rule="evenodd" d="M8 8.5H16V21.5H8V8.5ZM10 10.5V19.5H14V10.5H10Z" fill="#47588C"/>
<path fill-rule="evenodd" clip-rule="evenodd" d="M4.94561 3.50001C4.96372 3.50001 4.98186 3.50001 5.00001 3.50001H19C19.0182 3.50001 19.0363 3.50001 19.0544 3.50001C19.4785 3.49992 19.8906 3.49984 20.2305 3.54554C20.6137 3.59706 21.051 3.72259 21.4142 4.0858C21.7774 4.44902 21.903 4.88629 21.9545 5.26949C22.0002 5.60941 22.0001 6.02155 22 6.44562C22 6.46373 22 6.48187 22 6.50001V10.5H2.00001V6.50001C2.00001 6.48186 2.00001 6.46372 2.00001 6.44561C1.99992 6.02154 1.99984 5.60941 2.04554 5.26949C2.09706 4.88629 2.22259 4.44902 2.5858 4.0858C2.94902 3.72259 3.38629 3.59706 3.76949 3.54554C4.10941 3.49984 4.52154 3.49992 4.94561 3.50001ZM4.02871 5.52871C4.02838 5.53108 4.02804 5.53351 4.02771 5.53599C4.00214 5.72618 4.00001 6.00034 4.00001 6.50001V8.50001H20V6.50001C20 6.00034 19.9979 5.72618 19.9723 5.53599C19.972 5.53351 19.9717 5.53108 19.9713 5.52871C19.9689 5.52838 19.9665 5.52804 19.964 5.52771C19.7738 5.50214 19.4997 5.50001 19 5.50001H5.00001C4.50034 5.50001 4.22618 5.50214 4.03599 5.52771C4.03351 5.52804 4.03108 5.52837 4.02871 5.52871Z" fill="#47588C"/>
</svg>
