<svg width="24" height="24" viewBox="0 0 24 24" fill="none" xmlns="http://www.w3.org/2000/svg">
<path fill-rule="evenodd" clip-rule="evenodd" d="M3.5 18C3.5 16.6193 4.61929 15.5 6 15.5H18C19.3807 15.5 20.5 16.6193 20.5 18C20.5 19.3807 19.3807 20.5 18 20.5H6C4.61929 20.5 3.5 19.3807 3.5 18ZM6 16.5C5.17157 16.5 4.5 17.1716 4.5 18C4.5 18.8284 5.17157 19.5 6 19.5H18C18.8284 19.5 19.5 18.8284 19.5 18C19.5 17.1716 18.8284 16.5 18 16.5H6Z" fill="#33363F"/>
<path fill-rule="evenodd" clip-rule="evenodd" d="M11.9999 1.29297L19.2145 8.50755C19.4745 8.76757 19.7011 8.99412 19.8633 9.2017C20.0382 9.42554 20.1753 9.67223 20.2058 9.97969C20.2362 10.2871 20.1501 10.5559 20.0225 10.8097C19.9042 11.0451 19.7264 11.3117 19.5224 11.6177L16.2675 16.5001H7.7323L4.47737 11.6177C4.27335 11.3117 4.0956 11.0451 3.97727 10.8097C3.84967 10.5559 3.76354 10.2871 3.79398 9.97969C3.82443 9.67223 3.96161 9.42554 4.1365 9.2017C4.29868 8.99411 4.52526 8.76757 4.78532 8.50753L11.9999 1.29297ZM11.9999 2.70718L5.51282 9.19425C5.22643 9.48064 5.04439 9.66392 4.9245 9.81737C4.81308 9.95997 4.7939 10.0299 4.78912 10.0782C4.78433 10.1265 4.78943 10.1989 4.87071 10.3606C4.95818 10.5345 5.10074 10.75 5.3254 11.087L8.26748 15.5001H15.7323L18.6744 11.087C18.899 10.75 19.0416 10.5345 19.1291 10.3606C19.2103 10.1989 19.2154 10.1265 19.2107 10.0782C19.2059 10.0299 19.1867 9.95997 19.0753 9.81737C18.9554 9.66393 18.7733 9.48064 18.487 9.19425L11.9999 2.70718Z" fill="#33363F"/>
<path fill-rule="evenodd" clip-rule="evenodd" d="M12 13C13.1046 13 14 12.1046 14 11C14 9.89543 13.1046 9 12 9C10.8954 9 10 9.89543 10 11C10 12.1046 10.8954 13 12 13ZM12 14C13.6569 14 15 12.6569 15 11C15 9.34315 13.6569 8 12 8C10.3431 8 9 9.34315 9 11C9 12.6569 10.3431 14 12 14Z" fill="#33363F"/>
<path fill-rule="evenodd" clip-rule="evenodd" d="M11.5 9V2H12.5V9H11.5Z" fill="#33363F"/>
</svg>
