<svg width="40" height="42" viewBox="0 0 40 42" fill="none" xmlns="http://www.w3.org/2000/svg">
<g filter="url(#filter0_d_779_1875)">
<path fill-rule="evenodd" clip-rule="evenodd" d="M19.9999 18.3334C22.7613 18.3334 24.9999 16.0948 24.9999 13.3334C24.9999 10.5719 22.7613 8.33335 19.9999 8.33335C17.2385 8.33335 14.9999 10.5719 14.9999 13.3334C14.9999 16.0948 17.2385 18.3334 19.9999 18.3334ZM19.9999 20C23.6818 20 26.6666 17.0153 26.6666 13.3334C26.6666 9.65146 23.6818 6.66669 19.9999 6.66669C16.318 6.66669 13.3333 9.65146 13.3333 13.3334C13.3333 17.0153 16.318 20 19.9999 20Z" fill="#999999"/>
<path fill-rule="evenodd" clip-rule="evenodd" d="M7.27799 28.0272C8.48693 23.5964 13.0134 21.6667 17.2417 21.6667H22.7584C26.9867 21.6667 31.5132 23.5964 32.7221 28.0272C32.9512 28.867 33.1348 29.7777 33.2389 30.7469C33.3965 32.2139 32.1878 33.3334 30.8334 33.3334H9.16672C7.81229 33.3334 6.60356 32.2139 6.7612 30.7469C6.86534 29.7777 7.04888 28.867 7.27799 28.0272ZM17.2417 23.3334C13.3691 23.3334 9.80928 25.0816 8.88588 28.4659C8.67776 29.2288 8.51211 30.0522 8.41833 30.925C8.37928 31.2883 8.6802 31.6667 9.16672 31.6667H30.8334C31.3199 31.6667 31.6208 31.2883 31.5818 30.925C31.488 30.0522 31.3223 29.2288 31.1142 28.4659C30.1908 25.0816 26.631 23.3334 22.7584 23.3334H17.2417Z" fill="#999999"/>
</g>
<defs>
<filter id="filter0_d_779_1875" x="-4" y="0" width="48" height="48" filterUnits="userSpaceOnUse" color-interpolation-filters="sRGB">
<feFlood flood-opacity="0" result="BackgroundImageFix"/>
<feColorMatrix in="SourceAlpha" type="matrix" values="0 0 0 0 0 0 0 0 0 0 0 0 0 0 0 0 0 0 127 0" result="hardAlpha"/>
<feOffset dy="4"/>
<feGaussianBlur stdDeviation="2"/>
<feComposite in2="hardAlpha" operator="out"/>
<feColorMatrix type="matrix" values="0 0 0 0 0 0 0 0 0 0 0 0 0 0 0 0 0 0 0.25 0"/>
<feBlend mode="normal" in2="BackgroundImageFix" result="effect1_dropShadow_779_1875"/>
<feBlend mode="normal" in="SourceGraphic" in2="effect1_dropShadow_779_1875" result="shape"/>
</filter>
</defs>
</svg>
